<?xml version="1.0" encoding="UTF-8" standalone="no"?>
<!-- Created with Inkscape (http://www.inkscape.org/) -->

<svg
   width="128"
   height="128"
   viewBox="0 0 33.866668 33.866665"
   version="1.1"
   id="svg1"
   xml:space="preserve"
   inkscape:version="1.3.2 (091e20e, 2023-11-25, custom)"
   sodipodi:docname="airrace_logo - Copy.svg"
   xmlns:inkscape="http://www.inkscape.org/namespaces/inkscape"
   xmlns:sodipodi="http://sodipodi.sourceforge.net/DTD/sodipodi-0.dtd"
   xmlns:xlink="http://www.w3.org/1999/xlink"
   xmlns="http://www.w3.org/2000/svg"
   xmlns:svg="http://www.w3.org/2000/svg"><sodipodi:namedview
     id="namedview1"
     pagecolor="#ffffff"
     bordercolor="#000000"
     borderopacity="0.25"
     inkscape:showpageshadow="2"
     inkscape:pageopacity="0.0"
     inkscape:pagecheckerboard="0"
     inkscape:deskcolor="#d1d1d1"
     inkscape:document-units="mm"
     showguides="true"
     inkscape:zoom="4"
     inkscape:cx="68.500001"
     inkscape:cy="90.625001"
     inkscape:window-width="1920"
     inkscape:window-height="1017"
     inkscape:window-x="-8"
     inkscape:window-y="-8"
     inkscape:window-maximized="1"
     inkscape:current-layer="layer1"
     inkscape:lockguides="false" /><defs
     id="defs1"><linearGradient
       id="linearGradient33"
       inkscape:collect="always"><stop
         style="stop-color:#dfad61;stop-opacity:1;"
         offset="0"
         id="stop30" /><stop
         style="stop-color:#ffeb9c;stop-opacity:1;"
         offset="0.3858521"
         id="stop31" /><stop
         style="stop-color:#ffeb9c;stop-opacity:1;"
         offset="0.70739543"
         id="stop32" /><stop
         style="stop-color:#dfad61;stop-opacity:1;"
         offset="1"
         id="stop33" /></linearGradient><linearGradient
       id="linearGradient12"
       inkscape:collect="always"><stop
         style="stop-color:#7b5022;stop-opacity:1;"
         offset="0"
         id="stop14" /><stop
         style="stop-color:#dcb85f;stop-opacity:1;"
         offset="0.3858521"
         id="stop12" /><stop
         style="stop-color:#dcb85f;stop-opacity:1;"
         offset="0.70739543"
         id="stop15" /><stop
         style="stop-color:#7b5022;stop-opacity:1;"
         offset="1"
         id="stop13" /></linearGradient><inkscape:path-effect
       effect="bend_path"
       id="path-effect119"
       is_visible="false"
       lpeversion="1"
       bendpath="m 67.961624,204.16603 c 0,0 13.496577,2.28493 20.308933,2.28494 6.812501,10e-6 20.309373,-2.28494 20.309373,-2.28494"
       prop_scale="1"
       scale_y_rel="false"
       vertical="false"
       hide_knot="false"
       bendpath-nodetypes="cac" /><inkscape:path-effect
       effect="bend_path"
       id="path-effect4"
       is_visible="false"
       lpeversion="1"
       bendpath="m 64.038448,197.10485 c 23.663192,3.30814 24.289358,3.27987 47.243132,-0.055"
       prop_scale="0.95420884"
       scale_y_rel="false"
       vertical="false"
       hide_knot="false"
       bendpath-nodetypes="cc" /><inkscape:path-effect
       effect="bend_path"
       id="path-effect1"
       is_visible="false"
       lpeversion="1"
       bendpath="m 69.653956,194.61109 c 14.359977,-4.55751 22.470095,-4.7567 35.951034,0.0406"
       prop_scale="1"
       scale_y_rel="false"
       vertical="false"
       hide_knot="false"
       bendpath-nodetypes="cc" /><linearGradient
       id="linearGradient137"
       inkscape:collect="always"><stop
         style="stop-color:#4f391f;stop-opacity:1;"
         offset="0"
         id="stop131" /><stop
         style="stop-color:#a47832;stop-opacity:1;"
         offset="0.16669779"
         id="stop133" /><stop
         style="stop-color:#dbb268;stop-opacity:1;"
         offset="0.64459389"
         id="stop134" /><stop
         style="stop-color:#947758;stop-opacity:1;"
         offset="1"
         id="stop136" /></linearGradient><linearGradient
       id="linearGradient118"
       inkscape:collect="always"><stop
         style="stop-color:#513912;stop-opacity:1;"
         offset="0"
         id="stop118" /><stop
         style="stop-color:#ac8630;stop-opacity:1;"
         offset="0.16312431"
         id="stop122" /><stop
         style="stop-color:#764a25;stop-opacity:1;"
         offset="0.30118743"
         id="stop120" /><stop
         style="stop-color:#aa8536;stop-opacity:1;"
         offset="0.47782454"
         id="stop124" /><stop
         style="stop-color:#694620;stop-opacity:1;"
         offset="0.68952"
         id="stop121" /><stop
         style="stop-color:#c09748;stop-opacity:1;"
         offset="0.88689822"
         id="stop123" /><stop
         style="stop-color:#edd08b;stop-opacity:1;"
         offset="1"
         id="stop119" /></linearGradient><inkscape:path-effect
       effect="mirror_symmetry"
       start_point="88.262131,184.54688"
       end_point="88.262131,215.56917"
       center_point="88.262131,200.05802"
       id="path-effect23"
       is_visible="true"
       lpeversion="1.2"
       lpesatellites=""
       mode="free"
       discard_orig_path="false"
       fuse_paths="true"
       oposite_fuse="false"
       split_items="false"
       split_open="false"
       link_styles="false" /><inkscape:path-effect
       effect="mirror_symmetry"
       start_point="88.261983,184.54687"
       end_point="88.261983,215.56927"
       center_point="88.261983,200.05807"
       id="path-effect946"
       is_visible="true"
       lpeversion="1.2"
       lpesatellites=""
       mode="free"
       discard_orig_path="false"
       fuse_paths="true"
       oposite_fuse="true"
       split_items="false"
       split_open="false"
       link_styles="false" /><inkscape:path-effect
       effect="mirror_symmetry"
       start_point="88.261983,184.54687"
       end_point="88.261983,215.56927"
       center_point="88.261983,200.05807"
       id="path-effect865"
       is_visible="true"
       lpeversion="1.2"
       lpesatellites=""
       mode="free"
       discard_orig_path="false"
       fuse_paths="false"
       oposite_fuse="true"
       split_items="false"
       split_open="false"
       link_styles="false" /><inkscape:path-effect
       effect="mirror_symmetry"
       start_point="88.261983,184.54687"
       end_point="88.261983,215.56927"
       center_point="88.261983,200.05807"
       id="path-effect848"
       is_visible="true"
       lpeversion="1.2"
       lpesatellites=""
       mode="free"
       discard_orig_path="false"
       fuse_paths="false"
       oposite_fuse="false"
       split_items="false"
       split_open="false"
       link_styles="false" /><inkscape:path-effect
       effect="mirror_symmetry"
       start_point="83.383204,195.53259"
       end_point="83.383204,210.12147"
       center_point="83.383204,202.82703"
       id="path-effect49"
       is_visible="false"
       lpeversion="1.2"
       lpesatellites=""
       mode="X"
       discard_orig_path="false"
       fuse_paths="false"
       oposite_fuse="false"
       split_items="false"
       split_open="false"
       link_styles="false" /><rect
       x="113.70567"
       y="642.69165"
       width="407.21915"
       height="376.99261"
       id="rect5" /><rect
       x="175.01405"
       y="622.07404"
       width="416.91959"
       height="170.2173"
       id="rect2" /><rect
       x="126.68008"
       y="623.21783"
       width="577.12909"
       height="412.93048"
       id="rect1" /><inkscape:path-effect
       effect="spiro"
       id="path-effect11"
       is_visible="true"
       lpeversion="1" /><inkscape:path-effect
       effect="fillet_chamfer"
       id="path-effect9"
       is_visible="true"
       lpeversion="1"
       nodesatellites_param="F,0,0,1,0,0,0,1 @ F,0,0,1,0,0,0,1 @ F,0,1,1,0,0.34334521,0,1 @ F,0,0,1,0,0,0,1 @ F,0,0,1,0,0,0,1 @ F,0,0,1,0,0,0,1"
       radius="0"
       unit="px"
       method="auto"
       mode="F"
       chamfer_steps="1"
       flexible="false"
       use_knot_distance="true"
       apply_no_radius="true"
       apply_with_radius="true"
       only_selected="false"
       hide_knots="false" /><inkscape:path-effect
       effect="fillet_chamfer"
       id="path-effect7"
       is_visible="true"
       lpeversion="1"
       nodesatellites_param="F,0,0,1,0,0,0,1 @ F,0,0,1,0,0,0,1 @ F,0,1,1,0,0.34334521,0,1 @ F,0,0,1,0,0.34334521,0,1 @ F,0,0,1,0,0,0,1"
       radius="0"
       unit="px"
       method="auto"
       mode="F"
       chamfer_steps="1"
       flexible="false"
       use_knot_distance="true"
       apply_no_radius="true"
       apply_with_radius="true"
       only_selected="false"
       hide_knots="false" /><inkscape:path-effect
       effect="fillet_chamfer"
       id="path-effect3"
       is_visible="true"
       lpeversion="1"
       nodesatellites_param="F,0,0,1,0,0,0,1 @ F,0,0,1,0,0,0,1 @ F,0,0,1,0,0,0,1 @ F,0,0,1,0,0,0,1 @ F,0,0,1,0,0,0,1 @ F,0,0,1,0,0,0,1 @ F,0,0,1,0,0,0,1 @ F,0,0,1,0,0,0,1 @ F,0,0,1,0,0,0,1 @ F,0,0,1,0,0,0,1 @ F,0,0,1,0,0,0,1 @ F,0,0,1,0,0,0,1 @ F,0,0,1,0,0,0,1 @ F,0,0,1,0,0,0,1 @ F,0,0,1,0,0,0,1 @ F,0,0,1,0,0,0,1 @ F,0,0,1,0,0,0,1 @ F,0,0,1,0,0,0,1 @ F,0,0,1,0,0,0,1 @ F,0,0,1,0,0,0,1 @ F,0,0,1,0,0,0,1 @ F,0,0,1,0,0,0,1 @ F,0,0,1,0,0,0,1 @ F,0,0,1,0,0,0,1 @ F,0,0,1,0,0,0,1 @ F,0,0,1,0,0,0,1"
       radius="0"
       unit="px"
       method="auto"
       mode="F"
       chamfer_steps="1"
       flexible="false"
       use_knot_distance="true"
       apply_no_radius="true"
       apply_with_radius="true"
       only_selected="false"
       hide_knots="false" /><inkscape:path-effect
       effect="fillet_chamfer"
       id="path-effect2"
       is_visible="true"
       lpeversion="1"
       nodesatellites_param="F,0,0,1,0,0,0,1 @ F,0,0,1,0,0,0,1 @ F,0,0,1,0,0.5893931,0,1 @ F,0,0,1,0,1.6759919,0,1 @ F,0,0,1,0,0,0,1 @ F,0,0,1,0,0,0,1 @ F,0,0,1,0,0,0,1 @ F,0,0,1,0,0,0,1 @ F,0,0,1,0,0,0,1 @ F,0,0,1,0,0,0,1 @ F,0,0,1,0,0,0,1 @ F,0,0,1,0,0,0,1 @ F,0,0,1,0,0,0,1 @ F,0,0,1,0,0,0,1 @ F,0,0,1,0,0,0,1 @ F,0,0,1,0,0,0,1 @ F,0,0,1,0,0,0,1 @ F,0,0,1,0,0,0,1 @ F,0,0,1,0,0,0,1 @ F,0,0,1,0,0,0,1 @ F,0,0,1,0,0,0,1 @ F,0,0,1,0,0,0,1 @ F,0,0,1,0,0,0,1 @ F,0,1,1,0,1.1805486,0,1 @ F,0,0,1,0,2.3685088,0,1 @ F,0,0,1,0,2.2824134,0,1"
       radius="0"
       unit="px"
       method="auto"
       mode="F"
       chamfer_steps="1"
       flexible="false"
       use_knot_distance="true"
       apply_no_radius="true"
       apply_with_radius="true"
       only_selected="false"
       hide_knots="false" /><inkscape:path-effect
       effect="spiro"
       id="path-effect11-5"
       is_visible="true"
       lpeversion="1" /><inkscape:path-effect
       effect="fillet_chamfer"
       id="path-effect9-3"
       is_visible="true"
       lpeversion="1"
       nodesatellites_param="F,0,0,1,0,0,0,1 @ F,0,0,1,0,0,0,1 @ F,0,1,1,0,0.34334521,0,1 @ F,0,0,1,0,0,0,1 @ F,0,0,1,0,0,0,1 @ F,0,0,1,0,0,0,1"
       radius="0"
       unit="px"
       method="auto"
       mode="F"
       chamfer_steps="1"
       flexible="false"
       use_knot_distance="true"
       apply_no_radius="true"
       apply_with_radius="true"
       only_selected="false"
       hide_knots="false" /><inkscape:path-effect
       effect="fillet_chamfer"
       id="path-effect7-5"
       is_visible="true"
       lpeversion="1"
       nodesatellites_param="F,0,0,1,0,0,0,1 @ F,0,0,1,0,0,0,1 @ F,0,1,1,0,0.34334521,0,1 @ F,0,0,1,0,0.34334521,0,1 @ F,0,0,1,0,0,0,1"
       radius="0"
       unit="px"
       method="auto"
       mode="F"
       chamfer_steps="1"
       flexible="false"
       use_knot_distance="true"
       apply_no_radius="true"
       apply_with_radius="true"
       only_selected="false"
       hide_knots="false" /><inkscape:path-effect
       effect="fillet_chamfer"
       id="path-effect3-6"
       is_visible="true"
       lpeversion="1"
       nodesatellites_param="F,0,0,1,0,0,0,1 @ F,0,0,1,0,0,0,1 @ F,0,0,1,0,0,0,1 @ F,0,0,1,0,0,0,1 @ F,0,0,1,0,0,0,1 @ F,0,0,1,0,0,0,1 @ F,0,0,1,0,0,0,1 @ F,0,0,1,0,0,0,1 @ F,0,0,1,0,0,0,1 @ F,0,0,1,0,0,0,1 @ F,0,0,1,0,0,0,1 @ F,0,0,1,0,0,0,1 @ F,0,0,1,0,0,0,1 @ F,0,0,1,0,0,0,1 @ F,0,0,1,0,0,0,1 @ F,0,0,1,0,0,0,1 @ F,0,0,1,0,0,0,1 @ F,0,0,1,0,0,0,1 @ F,0,0,1,0,0,0,1 @ F,0,0,1,0,0,0,1 @ F,0,0,1,0,0,0,1 @ F,0,0,1,0,0,0,1 @ F,0,0,1,0,0,0,1 @ F,0,0,1,0,0,0,1 @ F,0,0,1,0,0,0,1 @ F,0,0,1,0,0,0,1"
       radius="0"
       unit="px"
       method="auto"
       mode="F"
       chamfer_steps="1"
       flexible="false"
       use_knot_distance="true"
       apply_no_radius="true"
       apply_with_radius="true"
       only_selected="false"
       hide_knots="false" /><inkscape:path-effect
       effect="fillet_chamfer"
       id="path-effect2-2"
       is_visible="true"
       lpeversion="1"
       nodesatellites_param="F,0,0,1,0,0,0,1 @ F,0,0,1,0,0,0,1 @ F,0,0,1,0,0.5893931,0,1 @ F,0,0,1,0,1.6759919,0,1 @ F,0,0,1,0,0,0,1 @ F,0,0,1,0,0,0,1 @ F,0,0,1,0,0,0,1 @ F,0,0,1,0,0,0,1 @ F,0,0,1,0,0,0,1 @ F,0,0,1,0,0,0,1 @ F,0,0,1,0,0,0,1 @ F,0,0,1,0,0,0,1 @ F,0,0,1,0,0,0,1 @ F,0,0,1,0,0,0,1 @ F,0,0,1,0,0,0,1 @ F,0,0,1,0,0,0,1 @ F,0,0,1,0,0,0,1 @ F,0,0,1,0,0,0,1 @ F,0,0,1,0,0,0,1 @ F,0,0,1,0,0,0,1 @ F,0,0,1,0,0,0,1 @ F,0,0,1,0,0,0,1 @ F,0,0,1,0,0,0,1 @ F,0,1,1,0,1.1805486,0,1 @ F,0,0,1,0,2.3685088,0,1 @ F,0,0,1,0,2.2824134,0,1"
       radius="0"
       unit="px"
       method="auto"
       mode="F"
       chamfer_steps="1"
       flexible="false"
       use_knot_distance="true"
       apply_no_radius="true"
       apply_with_radius="true"
       only_selected="false"
       hide_knots="false" /><filter
       style="color-interpolation-filters:sRGB"
       inkscape:label="Drop Shadow"
       id="filter89"
       x="-0.0012887699"
       y="0"
       width="1.0012888"
       height="1"><feComposite
         result="comp2"
         operator="in"
         in="comp1"
         in2="SourceGraphic"
         id="feComposite89" /></filter><filter
       style="color-interpolation-filters:sRGB"
       inkscape:label="Drop Shadow"
       id="filter103"
       x="-0.083369877"
       y="-0.18514412"
       width="1.1790425"
       height="1.4000217"><feFlood
         result="flood"
         in="SourceGraphic"
         flood-opacity="0.898039"
         flood-color="rgb(59,39,10)"
         id="feFlood102" /><feGaussianBlur
         result="blur"
         in="SourceGraphic"
         stdDeviation="2.4295336"
         id="feGaussianBlur102" /><feOffset
         result="offset"
         in="blur"
         dx="1.000000"
         dy="1.000000"
         id="feOffset102" /><feComposite
         result="comp1"
         operator="out"
         in="flood"
         in2="offset"
         id="feComposite102" /><feComposite
         result="comp2"
         operator="atop"
         in="comp1"
         in2="SourceGraphic"
         id="feComposite103" /></filter><linearGradient
       inkscape:collect="always"
       xlink:href="#linearGradient118"
       id="linearGradient119"
       x1="93.870918"
       y1="216.47905"
       x2="88.765556"
       y2="183.32227"
       gradientUnits="userSpaceOnUse" /><linearGradient
       inkscape:collect="always"
       xlink:href="#linearGradient137"
       id="linearGradient126"
       x1="88.199203"
       y1="218.65889"
       x2="81.218384"
       y2="183.0262"
       gradientUnits="userSpaceOnUse" /><filter
       style="color-interpolation-filters:sRGB"
       inkscape:label="Drop Shadow"
       id="filter78"
       x="-0.058325792"
       y="-0.14481132"
       width="1.1532079"
       height="1.3803903"><feFlood
         result="flood"
         in="SourceGraphic"
         flood-opacity="0.847059"
         flood-color="rgb(144,37,10)"
         id="feFlood77" /><feGaussianBlur
         result="blur"
         in="SourceGraphic"
         stdDeviation="0.62654423"
         id="feGaussianBlur77" /><feOffset
         result="offset"
         in="blur"
         dx="1.000000"
         dy="1.000000"
         id="feOffset77" /><feComposite
         result="comp1"
         operator="out"
         in="flood"
         in2="offset"
         id="feComposite77" /><feComposite
         result="fbSourceGraphic"
         operator="atop"
         in="comp1"
         in2="SourceGraphic"
         id="feComposite78" /><feColorMatrix
         result="fbSourceGraphicAlpha"
         in="fbSourceGraphic"
         values="0 0 0 -1 0 0 0 0 -1 0 0 0 0 -1 0 0 0 0 1 0"
         id="feColorMatrix116" /><feFlood
         id="feFlood116"
         result="flood"
         in="fbSourceGraphic"
         flood-opacity="0.847059"
         flood-color="rgb(6,46,41)" /><feGaussianBlur
         id="feGaussianBlur116"
         result="blur"
         in="fbSourceGraphic"
         stdDeviation="0.200000" /><feOffset
         id="feOffset116"
         result="offset"
         in="blur"
         dx="0.400000"
         dy="0.400000" /><feComposite
         id="feComposite117"
         result="comp1"
         operator="in"
         in="flood"
         in2="offset" /><feComposite
         id="feComposite118"
         result="comp2"
         operator="over"
         in="fbSourceGraphic"
         in2="comp1" /></filter><filter
       style="color-interpolation-filters:sRGB"
       inkscape:label="Drop Shadow"
       id="filter97"
       x="-0.015143138"
       y="-0.018999348"
       width="1.0338097"
       height="1.0379986" /><linearGradient
       inkscape:collect="always"
       xlink:href="#linearGradient12"
       id="linearGradient13"
       x1="46.775234"
       y1="-286.36166"
       x2="68.71459"
       y2="-286.36166"
       gradientUnits="userSpaceOnUse" /><linearGradient
       inkscape:collect="always"
       xlink:href="#linearGradient33"
       id="linearGradient30"
       x1="32.813187"
       y1="93.995346"
       x2="186.35704"
       y2="93.995346"
       gradientUnits="userSpaceOnUse" /><filter
       inkscape:collect="always"
       style="color-interpolation-filters:sRGB"
       id="filter37"
       x="-0.093599228"
       y="-0.093599203"
       width="1.1871985"
       height="1.1871984"><feGaussianBlur
         inkscape:collect="always"
         stdDeviation="0.42620249"
         id="feGaussianBlur37" /></filter></defs><g
     inkscape:groupmode="layer"
     id="layer1"
     inkscape:label="Layer 3"
     style="display:inline"
     transform="matrix(1.5436468,0,0,1.5436468,-72.204416,458.97459)"><rect
       style="display:inline;fill:#846020;stroke:none;stroke-width:0.629234;stroke-dasharray:none;fill-opacity:1;stroke-opacity:1"
       id="rect37"
       width="21.310122"
       height="21.310127"
       x="47.089851"
       y="-297.01672"
       ry="1.37076"
       transform="translate(2.6992367e-8)" /><rect
       style="display:inline;opacity:0.15;mix-blend-mode:normal;fill:none;fill-opacity:1;stroke:#000000;stroke-width:1.94345;stroke-dasharray:none;stroke-opacity:1;filter:url(#filter37)"
       id="rect36"
       width="21.310122"
       height="21.310127"
       x="47.089851"
       y="-297.01672"
       ry="1.37076"
       transform="matrix(0.93038826,0,0,0.93038826,4.0197238,-19.934128)" /><rect
       style="display:inline;fill:none;fill-opacity:1;stroke:url(#linearGradient13);stroke-width:0.629234;stroke-dasharray:none;stroke-opacity:1"
       id="rect3"
       width="21.310122"
       height="21.310127"
       x="47.089851"
       y="-297.01672"
       ry="1.37076" /><path
       id="path29"
       style="display:none;opacity:1;fill:url(#linearGradient126);fill-opacity:1;stroke:url(#linearGradient119);stroke-width:0.889;stroke-dasharray:none;filter:url(#filter103)"
       d="m 47.749001,183.256 6.955131,8.39742 H 70.39103 l -13.002307,0.10904 4.259171,7.76748 h 11.144023 l -8.32249,0.1602 5.921603,7.6972 h 6.406327 l -4.428153,0.14315 10.068635,7.50755 c 2.205075,1.64409 5.158947,1.96374 5.949509,2.11253 0.79056,-0.14879 3.744433,-0.46844 5.949507,-2.11253 l 10.068635,-7.50755 -4.426086,-0.14315 h 6.406326 l 5.92005,-7.6972 -8.32094,-0.1602 h 11.14403 l 4.25969,-7.76748 -13.00283,-0.10904 h 15.68742 l 6.95461,-8.39742 H 88.387348 Z"
       transform="matrix(0.26374863,0,0,0.35482913,34.383968,-357.10908)" /><g
       id="layer2"
       inkscape:label="plane"
       transform="matrix(0.12444866,0,0,0.12444866,44.385366,-297.58029)"
       style="display:inline;filter:url(#filter89);fill:url(#linearGradient30);fill-opacity:1"><path
         id="path6"
         style="display:inline;opacity:1;fill:url(#linearGradient30);fill-opacity:1;stroke:none;stroke-width:0.264583"
         inkscape:label="body"
         d="m 175.15107,48.659045 c -2.66418,0.03546 -7.0785,0.759513 -7.52926,1.018026 -0.72381,0.415101 -7.55509,13.126331 -7.55509,13.126331 0,0 -2.63718,5.603209 -4.42919,7.007841 -1.41324,1.10774 -8.26565,-0.152446 -8.26565,-0.152446 0,0 -14.22826,-1.459848 -21.36975,-1.71049 -5.08769,-0.178559 -10.20855,-0.379414 -15.27194,0.148312 -4.17359,0.434988 -8.33116,1.244043 -12.342397,2.476334 -3.228441,0.991818 -6.354371,2.349139 -9.339998,3.927926 -1.585801,0.83856 -2.490062,1.431652 -4.517037,2.925403 -2.971976,-0.0925 -6.493357,0.402387 -9.706385,0.884183 -4.61681,0.692303 -9.145024,1.886372 -13.707173,2.876827 -2.504504,0.543737 -5.045689,0.951417 -7.501868,1.683102 -2.229672,0.66421 -4.587315,1.177052 -6.536035,2.447912 -0.613724,0.400242 -1.218988,0.912381 -1.535824,1.573031 -0.31823,0.663561 -0.376405,1.46063 -0.271818,2.190564 0.222688,-0.06197 1.224585,-0.321057 1.467611,-0.376721 -0.354038,-1.00069 -0.268274,-1.514689 0.148828,-1.60197 0.263158,-0.05507 0.670013,-0.02005 0.789099,0.02325 0.975958,0.27356 1.650579,0.912199 1.829863,0.957047 0.323986,0.08105 0.890713,0.02938 1.263488,0.148312 0.880797,0.281009 1.371726,1.869635 1.943551,2.745052 0.734362,1.124248 1.499927,2.228303 2.219503,3.362068 0.536616,0.845498 1.033958,2.255797 0.430464,2.732133 -0.789996,0.439062 -1.917996,-0.47941 -2.697509,-1.011307 -0.210681,-0.157823 -0.737917,-0.523731 -1.0573,-0.760677 -0.591298,0.932053 -0.697983,1.343667 -1.702222,1.721342 -0.330737,0.03551 -0.703889,0.05859 -1.090372,0.07596 0.0223,0.03672 0.123506,0.209289 0.123506,0.209289 0,0 1.271962,2.225565 2.208134,3.069581 1.150671,1.03739 2.594854,1.73465 4.033346,2.30994 1.670276,0.66793 3.459478,1.03697 5.241023,1.28622 3.408349,0.47681 6.87786,0.27777 10.317717,0.38551 2.224728,0.0697 5.77542,-0.0721 6.675045,0.16898 1.43867,0.38549 3.51193,2.48925 3.51193,2.48925 0,0 0.697498,3.78881 0.608748,5.6963 -0.09401,2.02052 -1.20251,5.94795 -1.20251,5.94795 0,0 -2.82176,0.928 -3.911389,1.87948 -0.868624,0.75844 -2.144174,1.76013 -1.904794,2.88819 0.243339,1.1467 1.819561,1.6316 2.961577,1.89601 2.317082,0.53647 4.794323,-0.18752 7.088456,-0.81494 2.374512,-0.6494 4.834945,-1.45436 6.744808,-3.00757 0.823142,-0.66942 2.823325,-2.13302 1.861902,-2.58175 -1.772237,-0.82704 -9.878467,-0.81907 -9.878467,-0.81907 0,0 1.226154,-3.7026 1.507401,-5.6224 0.290331,-1.98176 0.17415,-6.00635 0.17415,-6.00635 l 0.730705,-1.29553 c -3.785797,-2.99179 -5.307577,-4.57136 -5.41612,-5.08227 -0.28017,-1.318744 2.37366,-4.280429 3.674301,-4.665241 1.351037,-0.399723 29.398062,-3.682298 31.223802,-2.37601 0.24076,0.172258 1.46204,1.187265 2.26423,2.047471 1.544,-0.472269 3.38511,-1.343702 4.92855,-1.816761 12.97682,-3.977366 25.94485,-8.078227 38.90218,-12.118548 -4.75364,-3.453056 -8.27383,-5.759043 -8.42246,-6.571647 -0.18521,-1.012535 1.50614,-2.383189 2.65895,-2.887886 1.06448,-0.466028 14.79698,-0.911148 15.75664,-0.37322 0.20701,0.116037 2.28314,2.228535 4.65956,4.615925 0.075,-0.06235 0.15632,-0.116809 0.22686,-0.184485 0.34548,-0.331424 0.77825,-1.207161 0.77825,-1.207161 0,0 0.57269,-25.343137 0.0775,-25.659933 -0.28746,-0.183922 -0.98108,-0.248498 -1.86913,-0.236678 z m -54.946,19.811711 c 1.96912,0.01269 3.69431,0.102531 4.9444,0.272852 3.05445,2.810322 -0.93947,12.088345 -1.62368,12.49071 -0.71235,0.41893 -21.56112,3.167765 -22.52162,3.271635 -0.96049,0.103872 -14.878049,-1.021056 -14.895731,-6.637321 1.428538,-2.376816 11.534568,-6.130854 16.043461,-7.527706 4.04413,-1.252859 12.14567,-1.908248 18.05317,-1.87017 z"
         sodipodi:nodetypes="sscscsssscsssssccscssssccccccsccsccsccssssccsccssscscssscscssscsscssc" /><path
         style="display:inline;fill:url(#linearGradient30);stroke-width:0.272527;fill-opacity:1;stroke:none"
         d="m 81.089879,99.840212 c 0.513112,1.779348 49.642621,38.689088 51.147961,39.087478 4.40341,1.35987 15.70095,1.6176 16.94435,-4.56966 -0.12084,-0.97402 -32.10743,-38.914556 -34.35692,-40.524017 -1.67491,-1.198366 -29.091029,1.887436 -30.329953,2.255813 -1.191452,0.35426 -3.698206,2.735167 -3.405438,3.750386 z"
         id="path1-9"
         sodipodi:nodetypes="ssssss"
         inkscape:label="wing1" /><path
         style="fill:url(#linearGradient30);stroke-width:0.217777;fill-opacity:1;stroke:none"
         d="M 64.57844,79.664167 C 63.582752,78.590977 39.298164,52.666988 39.425312,51.255498 c 0.311587,-3.458987 11.749858,-3.33435 13.576586,-2.482922 1.030469,0.480296 34.484529,25.627 34.484529,25.627 -0.88756,0.537757 -1.765008,1.065528 -3.260197,2.203378 -1.896878,-0.30656 -10.63973,0.59745 -19.64779,3.061213 z"
         id="path2"
         inkscape:label="wing2"
         sodipodi:nodetypes="cssccc" /><path
         style="fill:url(#linearGradient30);stroke-width:0.249703;fill-opacity:1;stroke:none"
         d="m 153.41476,74.451368 c -0.13491,-0.649817 1.5348,-2.050462 2.72681,-2.29202 1.03754,-0.21026 13.97512,-0.802051 14.8494,-0.311983 0.58096,0.325657 15.14287,15.135707 15.32533,15.683037 0.65496,1.964668 -6.76155,4.186969 -9.64768,3.024711 -0.82697,-0.333026 -23.04468,-15.096237 -23.25386,-16.103745 z"
         id="path3"
         sodipodi:nodetypes="ssssss"
         inkscape:label="winglet1" /><path
         style="fill:url(#linearGradient30);stroke-width:0.235788;fill-opacity:1;stroke:none"
         d="m 148.27235,69.23399 c -0.54557,-0.188309 -10.66042,-12.485338 -10.54525,-13.106198 0.43866,-2.364887 8.79786,-2.5113 10.70256,-1.580145 0.57077,0.279039 10.73521,7.857106 10.79146,8.452904 0.0775,0.56074 -3.22231,6.055476 -4.10105,6.473909 -0.95112,0.452902 -5.71754,0.171375 -6.84772,-0.24047 z"
         id="path4"
         sodipodi:nodetypes="csscsc"
         inkscape:label="winglet2" /><path
         style="display:inline;fill:url(#linearGradient30);stroke-width:0.264583;fill-opacity:1;stroke:none"
         d="m 38.75637,94.153163 c 0.59492,-1.467263 3.180403,-3.436851 3.736706,-3.710949 0.618953,-0.304966 3.184142,-1.530424 6.665595,-1.845097 0.188377,-0.01703 0.472548,0.0529 0.625831,0.164464 2.967532,2.159893 2.05834,6.69392 0.185365,8.075458 -0.15247,0.112465 -0.443135,0.191826 -0.632595,0.199686 -1.994851,0.08276 -4.789135,0.04372 -5.873231,-0.285685 -1.702972,-0.517432 -3.821764,-1.363275 -4.707671,-2.597877 z"
         id="path7"
         sodipodi:nodetypes="cscccc"
         inkscape:label="fanbase"
         inkscape:path-effect="#path-effect7-5"
         inkscape:original-d="m 38.75637,94.153163 c 0.59492,-1.467263 3.180403,-3.436851 3.736706,-3.710949 0.639013,-0.31485 3.352464,-1.610826 7.006953,-1.872761 3.468347,2.171606 2.3018,7.315981 0.180222,8.45145 -2.003422,0.102165 -5.06839,0.0789 -6.21621,-0.269863 -1.702972,-0.517432 -3.821764,-1.363275 -4.707671,-2.597877 z"
         transform="matrix(0.90899161,0,0,0.90899161,4.633904,8.3189854)" /><path
         style="fill:url(#linearGradient30);stroke:none;stroke-width:0.264583;fill-opacity:1"
         d="m 52.739701,102.16538 c 3.333001,1.87315 7.018853,2.53274 10.856153,2.67145 0.362133,0.0953 -1.521817,2.37027 -6.69346,1.11467 -4.592198,-1.11492 -4.162693,-3.78612 -4.162693,-3.78612 z"
         id="path9"
         sodipodi:nodetypes="ccsc" /><path
         style="fill:url(#linearGradient30);stroke:none;stroke-width:0.243118;fill-opacity:1"
         d="m 43.061027,90.723597 c -2.291534,-2.287323 -4.744037,-3.717055 -6.815529,-7.176691 1.004153,-1.213911 1.648969,-1.297121 2.339652,-1.52466 -1.884134,2.525454 2.257068,5.720166 4.475877,8.701351 z"
         id="path12"
         sodipodi:nodetypes="cccc" /><ellipse
         style="display:inline;opacity:0.198216;fill:url(#linearGradient30);stroke:#e6e6e6;stroke-width:0.395256;fill-opacity:1"
         id="path14"
         cx="47.630009"
         cy="93.213684"
         rx="14.619194"
         ry="16.186092" /><path
         style="fill:url(#linearGradient30);stroke:none;stroke-width:0.264583;fill-opacity:1"
         d="m 36.402993,82.05205 c 1.899233,-2.249856 3.53783,-3.34956 7.644378,-4.425374 -4.202893,1.126272 -9.852822,6.518114 -10.400109,11.832918 0.169104,-2.277591 1.056334,-5.394415 2.755731,-7.407544 z"
         id="path15"
         sodipodi:nodetypes="acca" /><path
         style="fill:url(#linearGradient30);stroke:none;stroke-width:0.284829;fill-opacity:1"
         d="m 46.556737,96.519616 c 2.157384,6.269454 5.259868,11.414834 3.469184,12.460454 0.796472,-0.0608 1.235274,0.27843 2.986813,-0.85022 -1.926388,-3.95316 -4.227178,-7.76844 -6.455997,-11.610234 z"
         id="path16"
         sodipodi:nodetypes="cccc" /><path
         style="fill:url(#linearGradient30);stroke:none;stroke-width:0.264583;fill-opacity:1"
         d="m 56.379724,105.97591 c -1.95708,1.52413 -4.251526,2.4698 -6.19345,2.95756 -2.413915,0.60632 -7.919633,-1.04065 -10.862342,-2.42117 1.352397,1.28532 6.440587,3.66747 9.918949,3.36546 2.70111,-0.23452 5.866538,-2.27538 7.136843,-3.90185 z"
         id="path17"
         sodipodi:nodetypes="cscac" /></g><g
       id="g137"
       inkscape:label="air"
       transform="matrix(0.45637123,0,0,0.45637123,17.259105,-379.96355)"
       style="display:none;stroke:#000000;stroke-width:0.5;stroke-dasharray:none;filter:url(#filter97)"><path
         id="path31"
         style="opacity:1;fill:#00b8ff;fill-opacity:1;stroke:#000000;stroke-width:0.5;stroke-dasharray:none"
         d="m 81.078883,182.37427 -5.555048,13.15832 3.233743,5e-5 0.865064,-2.64169 h 2.230871 v 2.64169 h 3.198254 v -13.15835 z m 0.77463,3.70106 v 4.46536 h -1.461409 z"
         sodipodi:nodetypes="ccccccccccccc" /><path
         style="opacity:1;fill:#00b8ff;fill-opacity:1;stroke:#000000;stroke-width:0.5;stroke-dasharray:none"
         d="m 86.581101,195.53259 h 3.361772 v -13.15826 h -3.361772 z"
         id="path36" /><path
         id="path39"
         style="opacity:1;fill:#00b8ff;fill-opacity:1;stroke:#000000;stroke-width:0.5;stroke-dasharray:none"
         d="m 94.665625,182.37433 c 2.240415,-4e-5 4.93805,2.02267 4.938048,4.52725 -2e-6,2.96032 -2.325869,3.88129 -2.325869,3.88129 l 3.135556,4.74972 h -3.577605 l -2.17013,-3.65241 v 3.65248 h -3.198253 v -13.15837 z m 0,3.15919 v 2.86097 c 0,0 1.571426,0 1.571426,-1.49291 0,-1.36806 -1.571426,-1.36806 -1.571426,-1.36806 z"
         sodipodi:nodetypes="csccccccccccsc" /></g><g
       id="g138"
       inkscape:label="race"
       transform="matrix(0.43467832,0,0,0.43467832,19.084314,-367.87329)"
       style="display:none;stroke:#280e00;stroke-width:0.5;stroke-dasharray:none;stroke-opacity:1;filter:url(#filter78)"><path
         style="opacity:1;fill:#ff0000;stroke:#280e00;stroke-width:0.5;stroke-dasharray:none;stroke-opacity:1"
         d="m 98.231344,200.70093 c 0,0 0,0.56391 0,0.83661 -0.58372,0 -2.602592,0 -3.519947,0 0,-0.21777 0,-0.50841 0,-0.8439 0,-0.96272 -1.780799,-0.96272 -1.780799,0 v 6.83308 c 0,0.96832 1.780799,0.96832 1.780799,0 0,-0.24128 0,-0.61536 0,-0.80517 0.701559,-1e-5 2.796909,0 3.519947,0 0,0.24167 0,0.61075 0,0.80487 0,5.62406 -8.950108,5.62406 -8.950108,0.96862 v -7.8014 c 0,-5.66042 8.950108,-5.6605 8.950108,0.007 z"
         id="path1"
         sodipodi:nodetypes="cccccccccccsc" /><path
         style="opacity:1;fill:#ff0000;stroke:#280e00;stroke-width:0.5;stroke-dasharray:none;stroke-opacity:1"
         d="m 99.24942,196.78426 h 8.13982 v 3.10649 l -4.56614,0.018 v 2.93159 h 3.35007 v 2.56823 l -3.35007,-6e-5 0.0301,2.91478 4.53604,1e-4 v 3.21568 l -8.13982,-7e-5 z"
         id="path5"
         sodipodi:nodetypes="ccccccccccccc" /><path
         id="path28"
         style="opacity:1;fill:#ff0000;fill-opacity:1;stroke:#280e00;stroke-width:0.5;stroke-dasharray:none;stroke-opacity:1"
         d="m 72.250402,196.79242 c 3.414601,0 4.87624,2.26558 4.876238,5.07094 -10e-7,3.31581 -2.296755,4.3474 -2.296755,4.3474 l 2.296753,5.32019 h -3.532824 l -1.343412,-4.09111 v 4.09111 h -3.158219 v -14.73857 z m 0,3.53859 v 3.20454 c 0,0 1.551758,0 1.551758,-1.67219 0,-1.53235 -1.551758,-1.53235 -1.551758,-1.53235 z"
         sodipodi:nodetypes="csccccccccccsc" /><path
         id="path32"
         style="opacity:1;fill:#ff0000;fill-opacity:1;stroke:#280e00;stroke-width:0.5;stroke-dasharray:none;stroke-opacity:1"
         d="m 81.056952,196.80153 -3.094095,14.72022 3.58158,5e-5 0.436962,-2.92585 h 2.470834 l 0.521154,2.92585 h 3.542273 l -3.05848,-14.72025 z m 2.154711,4.15676 0.809305,5.0346 h -1.618606 z"
         sodipodi:nodetypes="ccccccccccccc" /></g></g></svg>
