<?xml version="1.0" encoding="UTF-8" standalone="no"?>
<!-- Created with Inkscape (http://www.inkscape.org/) -->

<svg
   width="580.32324"
   height="345.65448"
   viewBox="0 0 153.54387 91.454413"
   version="1.1"
   id="svg1"
   xml:space="preserve"
   inkscape:version="1.3 (0e150ed, 2023-07-21)"
   sodipodi:docname="drawing.svg"
   xmlns:inkscape="http://www.inkscape.org/namespaces/inkscape"
   xmlns:sodipodi="http://sodipodi.sourceforge.net/DTD/sodipodi-0.dtd"
   xmlns="http://www.w3.org/2000/svg"
   xmlns:svg="http://www.w3.org/2000/svg"><sodipodi:namedview
     id="namedview1"
     pagecolor="#000000"
     bordercolor="#000000"
     borderopacity="0.25"
     inkscape:showpageshadow="2"
     inkscape:pageopacity="0.0"
     inkscape:pagecheckerboard="0"
     inkscape:deskcolor="#d1d1d1"
     inkscape:document-units="mm"
     inkscape:zoom="1.026783"
     inkscape:cx="248.34849"
     inkscape:cy="184.55702"
     inkscape:window-width="1920"
     inkscape:window-height="1012"
     inkscape:window-x="0"
     inkscape:window-y="0"
     inkscape:window-maximized="1"
     inkscape:current-layer="layer2" /><defs
     id="defs1"><inkscape:path-effect
       effect="spiro"
       id="path-effect11"
       is_visible="true"
       lpeversion="1" /><inkscape:path-effect
       effect="fillet_chamfer"
       id="path-effect9"
       is_visible="true"
       lpeversion="1"
       nodesatellites_param="F,0,0,1,0,0,0,1 @ F,0,0,1,0,0,0,1 @ F,0,1,1,0,0.34334521,0,1 @ F,0,0,1,0,0,0,1 @ F,0,0,1,0,0,0,1 @ F,0,0,1,0,0,0,1"
       radius="0"
       unit="px"
       method="auto"
       mode="F"
       chamfer_steps="1"
       flexible="false"
       use_knot_distance="true"
       apply_no_radius="true"
       apply_with_radius="true"
       only_selected="false"
       hide_knots="false" /><inkscape:path-effect
       effect="fillet_chamfer"
       id="path-effect7"
       is_visible="true"
       lpeversion="1"
       nodesatellites_param="F,0,0,1,0,0,0,1 @ F,0,0,1,0,0,0,1 @ F,0,1,1,0,0.34334521,0,1 @ F,0,0,1,0,0.34334521,0,1 @ F,0,0,1,0,0,0,1"
       radius="0"
       unit="px"
       method="auto"
       mode="F"
       chamfer_steps="1"
       flexible="false"
       use_knot_distance="true"
       apply_no_radius="true"
       apply_with_radius="true"
       only_selected="false"
       hide_knots="false" /><inkscape:path-effect
       effect="fillet_chamfer"
       id="path-effect3"
       is_visible="true"
       lpeversion="1"
       nodesatellites_param="F,0,0,1,0,0,0,1 @ F,0,0,1,0,0,0,1 @ F,0,0,1,0,0,0,1 @ F,0,0,1,0,0,0,1 @ F,0,0,1,0,0,0,1 @ F,0,0,1,0,0,0,1 @ F,0,0,1,0,0,0,1 @ F,0,0,1,0,0,0,1 @ F,0,0,1,0,0,0,1 @ F,0,0,1,0,0,0,1 @ F,0,0,1,0,0,0,1 @ F,0,0,1,0,0,0,1 @ F,0,0,1,0,0,0,1 @ F,0,0,1,0,0,0,1 @ F,0,0,1,0,0,0,1 @ F,0,0,1,0,0,0,1 @ F,0,0,1,0,0,0,1 @ F,0,0,1,0,0,0,1 @ F,0,0,1,0,0,0,1 @ F,0,0,1,0,0,0,1 @ F,0,0,1,0,0,0,1 @ F,0,0,1,0,0,0,1 @ F,0,0,1,0,0,0,1 @ F,0,0,1,0,0,0,1 @ F,0,0,1,0,0,0,1 @ F,0,0,1,0,0,0,1"
       radius="0"
       unit="px"
       method="auto"
       mode="F"
       chamfer_steps="1"
       flexible="false"
       use_knot_distance="true"
       apply_no_radius="true"
       apply_with_radius="true"
       only_selected="false"
       hide_knots="false" /><inkscape:path-effect
       effect="fillet_chamfer"
       id="path-effect2"
       is_visible="true"
       lpeversion="1"
       nodesatellites_param="F,0,0,1,0,0,0,1 @ F,0,0,1,0,0,0,1 @ F,0,0,1,0,0.5893931,0,1 @ F,0,0,1,0,1.6759919,0,1 @ F,0,0,1,0,0,0,1 @ F,0,0,1,0,0,0,1 @ F,0,0,1,0,0,0,1 @ F,0,0,1,0,0,0,1 @ F,0,0,1,0,0,0,1 @ F,0,0,1,0,0,0,1 @ F,0,0,1,0,0,0,1 @ F,0,0,1,0,0,0,1 @ F,0,0,1,0,0,0,1 @ F,0,0,1,0,0,0,1 @ F,0,0,1,0,0,0,1 @ F,0,0,1,0,0,0,1 @ F,0,0,1,0,0,0,1 @ F,0,0,1,0,0,0,1 @ F,0,0,1,0,0,0,1 @ F,0,0,1,0,0,0,1 @ F,0,0,1,0,0,0,1 @ F,0,0,1,0,0,0,1 @ F,0,0,1,0,0,0,1 @ F,0,1,1,0,1.1805486,0,1 @ F,0,0,1,0,2.3685088,0,1 @ F,0,0,1,0,2.2824134,0,1"
       radius="0"
       unit="px"
       method="auto"
       mode="F"
       chamfer_steps="1"
       flexible="false"
       use_knot_distance="true"
       apply_no_radius="true"
       apply_with_radius="true"
       only_selected="false"
       hide_knots="false" /></defs><g
     inkscape:groupmode="layer"
     id="layer2"
     inkscape:label="Layer 2"
     sodipodi:insensitive="true"
     transform="translate(-32.813187,-48.268136)"><path
       id="path6"
       style="display:inline;opacity:1;fill:#ffffff;fill-opacity:1;stroke:#ffffff;stroke-width:0.264583"
       inkscape:label="body"
       d="m 175.15107,48.659045 c -2.66418,0.03546 -7.0785,0.759513 -7.52926,1.018026 -0.72381,0.415101 -7.55509,13.126331 -7.55509,13.126331 0,0 -2.63718,5.603209 -4.42919,7.007841 -1.41324,1.10774 -8.26565,-0.152446 -8.26565,-0.152446 0,0 -14.22826,-1.459848 -21.36975,-1.71049 -5.08769,-0.178559 -10.20855,-0.379414 -15.27194,0.148312 -4.17359,0.434988 -8.33116,1.244043 -12.342397,2.476334 -3.228441,0.991818 -6.354371,2.349139 -9.339998,3.927926 -1.585801,0.83856 -2.490062,1.431652 -4.517037,2.925403 -2.971976,-0.0925 -6.493357,0.402387 -9.706385,0.884183 -4.61681,0.692303 -9.145024,1.886372 -13.707173,2.876827 -2.504504,0.543737 -5.045689,0.951417 -7.501868,1.683102 -2.229672,0.66421 -4.587315,1.177052 -6.536035,2.447912 -0.613724,0.400242 -1.218988,0.912381 -1.535824,1.573031 -0.31823,0.663561 -0.376405,1.46063 -0.271818,2.190564 0.222688,-0.06197 1.224585,-0.321057 1.467611,-0.376721 -0.354038,-1.00069 -0.268274,-1.514689 0.148828,-1.60197 0.263158,-0.05507 0.670013,-0.02005 0.789099,0.02325 0.975958,0.27356 1.650579,0.912199 1.829863,0.957047 0.323986,0.08105 0.890713,0.02938 1.263488,0.148312 0.880797,0.281009 1.371726,1.869635 1.943551,2.745052 0.734362,1.124248 1.499927,2.228303 2.219503,3.362068 0.536616,0.845498 1.033958,2.255797 0.430464,2.732133 -0.789996,0.439062 -1.917996,-0.47941 -2.697509,-1.011307 -0.210681,-0.157823 -0.737917,-0.523731 -1.0573,-0.760677 -0.591298,0.932053 -0.697983,1.343667 -1.702222,1.721342 -0.330737,0.03551 -0.703889,0.05859 -1.090372,0.07596 0.0223,0.03672 0.123506,0.209289 0.123506,0.209289 0,0 1.271962,2.225565 2.208134,3.069581 1.150671,1.03739 2.594854,1.73465 4.033346,2.30994 1.670276,0.66793 3.459478,1.03697 5.241023,1.28622 3.408349,0.47681 6.87786,0.27777 10.317717,0.38551 2.224728,0.0697 5.77542,-0.0721 6.675045,0.16898 1.43867,0.38549 3.51193,2.48925 3.51193,2.48925 0,0 0.697498,3.78881 0.608748,5.6963 -0.09401,2.02052 -1.20251,5.94795 -1.20251,5.94795 0,0 -2.82176,0.928 -3.911389,1.87948 -0.868624,0.75844 -2.144174,1.76013 -1.904794,2.88819 0.243339,1.1467 1.819561,1.6316 2.961577,1.89601 2.317082,0.53647 4.794323,-0.18752 7.088456,-0.81494 2.374512,-0.6494 4.834945,-1.45436 6.744808,-3.00757 0.823142,-0.66942 2.823325,-2.13302 1.861902,-2.58175 -1.772237,-0.82704 -9.878467,-0.81907 -9.878467,-0.81907 0,0 1.226154,-3.7026 1.507401,-5.6224 0.290331,-1.98176 0.17415,-6.00635 0.17415,-6.00635 l 0.730705,-1.29553 c -3.785797,-2.99179 -5.307577,-4.57136 -5.41612,-5.08227 -0.28017,-1.318744 2.37366,-4.280429 3.674301,-4.665241 1.351037,-0.399723 29.398062,-3.682298 31.223802,-2.37601 0.24076,0.172258 1.46204,1.187265 2.26423,2.047471 1.544,-0.472269 3.38511,-1.343702 4.92855,-1.816761 12.97682,-3.977366 25.94485,-8.078227 38.90218,-12.118548 -4.75364,-3.453056 -8.27383,-5.759043 -8.42246,-6.571647 -0.18521,-1.012535 1.50614,-2.383189 2.65895,-2.887886 1.06448,-0.466028 14.79698,-0.911148 15.75664,-0.37322 0.20701,0.116037 2.28314,2.228535 4.65956,4.615925 0.075,-0.06235 0.15632,-0.116809 0.22686,-0.184485 0.34548,-0.331424 0.77825,-1.207161 0.77825,-1.207161 0,0 0.57269,-25.343137 0.0775,-25.659933 -0.28746,-0.183922 -0.98108,-0.248498 -1.86913,-0.236678 z m -54.946,19.811711 c 1.96912,0.01269 3.69431,0.102531 4.9444,0.272852 3.05445,2.810322 -0.93947,12.088345 -1.62368,12.49071 -0.71235,0.41893 -21.56112,3.167765 -22.52162,3.271635 -0.96049,0.103872 -14.878049,-1.021056 -14.895731,-6.637321 1.428538,-2.376816 11.534568,-6.130854 16.043461,-7.527706 4.04413,-1.252859 12.14567,-1.908248 18.05317,-1.87017 z"
       sodipodi:nodetypes="sscscsssscsssssccscssssccccccsccsccsccssssccsccssscscssscscssscsscssc" /><path
       style="display:inline;fill:#ffffff;stroke-width:0.272527"
       d="m 81.089879,99.840212 c 0.513112,1.779348 49.642621,38.689088 51.147961,39.087478 4.40341,1.35987 15.70095,1.6176 16.94435,-4.56966 -0.12084,-0.97402 -32.10743,-38.914556 -34.35692,-40.524017 -1.67491,-1.198366 -29.091029,1.887436 -30.329953,2.255813 -1.191452,0.35426 -3.698206,2.735167 -3.405438,3.750386 z"
       id="path1"
       sodipodi:nodetypes="ssssss"
       inkscape:label="wing1" /><path
       style="fill:#ffffff;stroke-width:0.217777"
       d="M 64.57844,79.664167 C 63.582752,78.590977 39.298164,52.666988 39.425312,51.255498 c 0.311587,-3.458987 11.749858,-3.33435 13.576586,-2.482922 1.030469,0.480296 34.484529,25.627 34.484529,25.627 -0.88756,0.537757 -1.765008,1.065528 -3.260197,2.203378 -1.896878,-0.30656 -10.63973,0.59745 -19.64779,3.061213 z"
       id="path2"
       inkscape:label="wing2"
       sodipodi:nodetypes="cssccc" /><path
       style="fill:#ffffff;stroke-width:0.249703"
       d="m 153.41476,74.451368 c -0.13491,-0.649817 1.5348,-2.050462 2.72681,-2.29202 1.03754,-0.21026 13.97512,-0.802051 14.8494,-0.311983 0.58096,0.325657 15.14287,15.135707 15.32533,15.683037 0.65496,1.964668 -6.76155,4.186969 -9.64768,3.024711 -0.82697,-0.333026 -23.04468,-15.096237 -23.25386,-16.103745 z"
       id="path3"
       sodipodi:nodetypes="ssssss"
       inkscape:label="winglet1" /><path
       style="fill:#ffffff;stroke-width:0.235788"
       d="m 148.27235,69.23399 c -0.54557,-0.188309 -10.66042,-12.485338 -10.54525,-13.106198 0.43866,-2.364887 8.79786,-2.5113 10.70256,-1.580145 0.57077,0.279039 10.73521,7.857106 10.79146,8.452904 0.0775,0.56074 -3.22231,6.055476 -4.10105,6.473909 -0.95112,0.452902 -5.71754,0.171375 -6.84772,-0.24047 z"
       id="path4"
       sodipodi:nodetypes="csscsc"
       inkscape:label="winglet2" /><path
       style="display:inline;fill:#ffffff;stroke-width:0.264583"
       d="m 38.75637,94.153163 c 0.59492,-1.467263 3.180403,-3.436851 3.736706,-3.710949 0.618953,-0.304966 3.184142,-1.530424 6.665595,-1.845097 0.188377,-0.01703 0.472548,0.0529 0.625831,0.164464 2.967532,2.159893 2.05834,6.69392 0.185365,8.075458 -0.15247,0.112465 -0.443135,0.191826 -0.632595,0.199686 -1.994851,0.08276 -4.789135,0.04372 -5.873231,-0.285685 -1.702972,-0.517432 -3.821764,-1.363275 -4.707671,-2.597877 z"
       id="path7"
       sodipodi:nodetypes="cscccc"
       inkscape:label="fanbase"
       inkscape:path-effect="#path-effect7"
       inkscape:original-d="m 38.75637,94.153163 c 0.59492,-1.467263 3.180403,-3.436851 3.736706,-3.710949 0.639013,-0.31485 3.352464,-1.610826 7.006953,-1.872761 3.468347,2.171606 2.3018,7.315981 0.180222,8.45145 -2.003422,0.102165 -5.06839,0.0789 -6.21621,-0.269863 -1.702972,-0.517432 -3.821764,-1.363275 -4.707671,-2.597877 z"
       transform="matrix(0.90899161,0,0,0.90899161,4.633904,8.3189854)" /><path
       style="fill:#ffffff;stroke:none;stroke-width:0.264583"
       d="m 52.739701,102.16538 c 3.333001,1.87315 7.018853,2.53274 10.856153,2.67145 0.362133,0.0953 -1.521817,2.37027 -6.69346,1.11467 -4.592198,-1.11492 -4.162693,-3.78612 -4.162693,-3.78612 z"
       id="path9"
       sodipodi:nodetypes="ccsc" /><path
       style="fill:#ffffff;stroke:none;stroke-width:0.243118"
       d="m 43.061027,90.723597 c -2.291534,-2.287323 -4.744037,-3.717055 -6.815529,-7.176691 1.004153,-1.213911 1.648969,-1.297121 2.339652,-1.52466 -1.884134,2.525454 2.257068,5.720166 4.475877,8.701351 z"
       id="path12"
       sodipodi:nodetypes="cccc" /><ellipse
       style="display:inline;opacity:0.198216;fill:none;stroke:#e6e6e6;stroke-width:0.395256"
       id="path14"
       cx="47.630009"
       cy="93.213684"
       rx="14.619194"
       ry="16.186092" /><path
       style="fill:#ffffff;stroke:none;stroke-width:0.264583"
       d="m 36.402993,82.05205 c 1.899233,-2.249856 3.53783,-3.34956 7.644378,-4.425374 -4.202893,1.126272 -9.852822,6.518114 -10.400109,11.832918 0.169104,-2.277591 1.056334,-5.394415 2.755731,-7.407544 z"
       id="path15"
       sodipodi:nodetypes="acca" /><path
       style="fill:#ffffff;stroke:none;stroke-width:0.284829"
       d="m 46.556737,96.519616 c 2.157384,6.269454 5.259868,11.414834 3.469184,12.460454 0.796472,-0.0608 1.235274,0.27843 2.986813,-0.85022 -1.926388,-3.95316 -4.227178,-7.76844 -6.455997,-11.610234 z"
       id="path16"
       sodipodi:nodetypes="cccc" /><path
       style="fill:#ffffff;stroke:none;stroke-width:0.264583"
       d="m 56.379724,105.97591 c -1.95708,1.52413 -4.251526,2.4698 -6.19345,2.95756 -2.413915,0.60632 -7.919633,-1.04065 -10.862342,-2.42117 1.352397,1.28532 6.440587,3.66747 9.918949,3.36546 2.70111,-0.23452 5.866538,-2.27538 7.136843,-3.90185 z"
       id="path17"
       sodipodi:nodetypes="cscac" /></g></svg>
