<?xml version="1.0" encoding="UTF-8" standalone="no"?>
<svg
   version="1.0"
   width="512pt"
   height="512pt"
   viewBox="0 0 512 512"
   preserveAspectRatio="xMidYMid"
   id="svg6"
   sodipodi:docname="aeroplane_652536.svg"
   xmlns:inkscape="http://www.inkscape.org/namespaces/inkscape"
   xmlns:sodipodi="http://sodipodi.sourceforge.net/DTD/sodipodi-0.dtd"
   xmlns="http://www.w3.org/2000/svg"
   xmlns:svg="http://www.w3.org/2000/svg">
  <defs
     id="defs10" />
  <sodipodi:namedview
     id="namedview8"
     pagecolor="#ffffff"
     bordercolor="#000000"
     borderopacity="0.25"
     inkscape:showpageshadow="2"
     inkscape:pageopacity="0.0"
     inkscape:pagecheckerboard="0"
     inkscape:deskcolor="#d1d1d1"
     inkscape:document-units="pt"
     showgrid="false" />
  <g
     transform="matrix(0.1,0,0,-0.1,0,512)"
     fill="#000000"
     stroke="none"
     id="g4">
    <path
       d="m 2737,5109 c -101,-24 -200,-109 -239,-206 l -23,-58 -3,-857 -3,-858 h -658 -658 l -78,165 c -43,90 -90,175 -104,189 -57,54 -70,56 -463,56 -348,0 -363,-1 -406,-21 -62,-31 -96,-86 -97,-158 0,-52 12,-80 164,-401 90,-190 168,-354 173,-365 7,-16 -24,-90 -157,-370 C 94,2032 14,1857 8,1834 c -23,-82 31,-180 114,-210 43,-16 716,-19 770,-4 67,19 94,53 173,216 l 74,154 h 665 665 l 3,-857 3,-858 23,-58 c 30,-73 104,-149 179,-185 l 58,-27 h 370 370 l 55,26 c 108,50 183,153 201,272 5,34 9,428 9,875 v 812 h 268 c 294,0 314,4 376,66 54,54 66,96 66,232 v 122 h 100 99 l 3,-299 c 3,-287 4,-301 24,-328 32,-42 80,-66 132,-65 51,0 85,21 120,72 22,32 22,39 22,326 v 294 h 28 c 66,0 141,76 142,144 0,53 -37,113 -84,135 -23,12 -52,21 -64,21 h -22 v 293 c 0,274 -1,294 -20,325 -27,44 -76,72 -128,72 -54,0 -94,-20 -124,-62 -23,-33 -23,-37 -26,-330 l -3,-298 h -100 -99 v 123 c 0,138 -13,178 -71,234 -64,60 -81,63 -373,63 h -265 l -3,858 -3,857 -32,67 c -37,79 -98,142 -173,177 l -55,26 -350,2 c -192,1 -367,-3 -388,-8 z m 687,-311 c 13,-18 16,-56 16,-205 v -183 h -335 -335 v 189 c 0,159 3,192 16,205 13,14 56,16 319,16 303,0 304,0 319,-22 z m 14,-2241 2,-1547 h -335 -335 v 1550 1550 l 333,-2 332,-3 z M 849,3070 c 83,-177 110,-213 169,-230 24,-6 288,-10 745,-10 h 707 v -270 -269 l -732,-3 c -674,-3 -736,-4 -765,-20 -43,-24 -60,-50 -137,-213 l -66,-140 -200,-3 -200,-2 14,32 c 8,18 74,159 147,313 101,213 133,290 133,320 0,31 -28,101 -123,300 -68,143 -134,284 -147,313 l -24,52 201,-2 200,-3 z m 3301,-510 v -270 h -205 -205 v 270 270 h 205 205 z M 3440,527 c 0,-149 -3,-187 -16,-205 -15,-22 -16,-22 -319,-22 -263,0 -306,2 -319,16 -13,13 -16,46 -16,205 v 189 h 335 335 z"
       id="path2" />
  </g>
  <path
     style="fill:#ff8080;stroke-width:0.610978"
     d="m 267.60859,508.80526 c -7.292,-3.79788 -14.14985,-10.80896 -17.57094,-17.96352 l -2.59135,-5.41931 -0.37319,-83.09308 c -0.20526,-45.70118 -0.41146,-84.39904 -0.45824,-85.99522 l -0.085,-2.90215 h -66.30196 -66.30195 l -6.0516,12.37232 c -9.07841,18.56057 -11.740235,22.10936 -17.995482,23.99191 -6.850605,2.06173 -73.604243,1.62225 -78.727325,-0.51831 C 5.2103497,346.79552 0.30685321,339.32383 0.30597126,332.75203 0.30537922,328.34026 0.75529477,327.2584 17.90866,290.42503 31.393043,261.47006 33.909308,255.67501 33.909308,253.575 c 0,-0.71507 -5.947633,-13.86531 -13.216964,-29.22276 C 0.98626747,182.72045 -0.17662198,179.81731 0.5148157,173.9792 c 0.7397032,-6.24564 4.2764547,-11.19843 10.1401693,-14.20008 2.89904,-1.48402 13.991165,-2.08582 38.528786,-2.09036 21.525439,-0.005 38.043554,0.70255 41.742531,1.78549 5.369445,1.572 9.096198,7.0158 18.815958,27.48518 l 5.36722,11.3031 65.61152,0.15547 65.61153,0.15547 0.40307,-18.79032 c 0.22168,-10.33467 0.40355,-48.68719 0.40414,-85.2278 l 7.5e-4,-66.437482 1.62168,-4.130533 c 3.72233,-9.480138 10.29971,-16.6636925 19.07511,-20.8326938 4.38027,-2.0809695 4.79647,-2.1557819 14.96898,-2.69067297 5.75489,-0.30260373 22.69827,-0.45163728 37.65198,-0.33118549 l 27.18854,0.21900311 4.11734,2.00355245 c 8.84742,4.3052587 14.55455,10.0983397 19.05421,19.3411827 l 2.68027,5.50559 0.45165,85.586509 0.45165,85.58651 25.41957,0.39393 c 31.51075,0.48831 32.94727,0.75979 39.04911,7.37949 5.15061,5.58776 6.22727,9.84236 6.22727,24.60805 v 9.96893 h 9.77566 9.77566 l 0.0517,-6.87351 c 0.0285,-3.78042 0.25418,-16.90882 0.5016,-29.17422 0.50832,-25.1993 0.47127,-24.99207 5.2155,-29.16811 7.48922,-6.59228 19.28563,-3.91108 23.49417,5.33995 0.83597,1.8376 1.00079,6.18967 1.17159,30.93582 l 0.19877,28.7974 2.45218,0.39212 c 3.69825,0.59138 8.06084,3.06018 10.55346,5.97225 2.61177,3.05127 4.31015,8.14544 3.68358,11.04862 -1.42783,6.61569 -7.38869,12.33731 -13.62232,13.07559 l -3.15135,0.37323 -0.0446,26.64521 c -0.0245,14.65486 -0.2508,28.09351 -0.50283,29.86366 -0.55285,3.88309 -2.9958,7.60239 -6.70362,10.20601 -2.38531,1.67496 -3.0774,1.84829 -7.31468,1.83195 -5.18106,-0.0199 -7.52497,-0.90991 -10.99474,-4.17446 -4.01697,-3.77937 -3.95089,-3.36001 -4.44155,-28.18935 -0.2457,-12.43342 -0.46926,-25.69929 -0.49681,-29.47972 l -0.0501,-6.87351 h -9.71187 -9.71191 l -0.27947,12.06683 c -0.3475,15.00412 -0.85439,16.90065 -5.98221,22.38231 -5.42456,5.79885 -7.39983,6.46993 -20.98504,7.12937 -6.08681,0.29546 -18.42159,0.54661 -27.41061,0.5581 l -16.34368,0.0209 -0.053,64.91647 c -0.0292,35.70405 -0.2594,73.98949 -0.51168,85.07875 -0.43119,18.95446 -0.54559,20.4185 -1.90958,24.43914 -3.0738,9.06059 -10.28588,17.0747 -19.27958,21.42361 l -4.34093,2.09907 -37.81656,-0.019 -37.81656,-0.019 -4.88783,-2.54574 z m 72.73672,-27.65087 c 2.86097,-0.89735 3.0126,-1.9126 3.21767,-21.5458 l 0.19306,-18.4821 H 310.4174 277.07876 l 0.0515,15.73269 c 0.0547,16.68914 0.4571,22.28931 1.69041,23.52453 0.46894,0.46968 3.50271,0.91182 7.91031,1.15284 8.68597,0.47496 51.86279,0.16721 53.61428,-0.38216 z m 3.32787,-216.44794 c -0.002,-80.22912 -0.18147,-149.78903 -0.40053,-154.57758 l -0.39829,-8.70644 h -32.8978 -32.8978 V 256 410.57756 h 33.29833 33.29833 l -0.002,-145.87111 z m -272.440716,55.66299 5.857771,-0.38796 5.377687,-11.37021 c 8.446073,-17.85781 11.016751,-21.77784 15.594128,-23.77953 2.75867,-1.20636 36.2524,-1.82875 102.18616,-1.89885 l 46.8926,-0.0498 V 256.0584 229.23374 L 175.19809,228.957 c -58.98864,-0.22691 -72.38277,-0.42836 -74.38664,-1.11881 -5.189293,-1.78803 -8.430613,-6.66585 -18.27221,-27.49763 l -5.368478,-11.36349 -8.647437,-0.39561 c -10.998686,-0.50317 -30.948146,-0.51803 -30.948146,-0.023 0,0.20736 2.781747,6.32478 6.181661,13.59426 3.399913,7.26949 9.03122,19.315 12.514015,26.76781 7.931984,16.9736 10.020315,22.21862 10.020315,25.16683 0,4.22618 -1.567173,7.97539 -17.426181,41.68927 -5.819119,12.37057 -10.758403,23.05338 -10.976186,23.73954 -0.390802,1.23132 -0.21408,1.24755 13.544965,1.24443 7.667514,-0.002 16.576927,-0.17774 19.798696,-0.39111 z M 414.54892,256 v -26.88306 h -20.16228 -20.1623 V 256 282.88306 h 20.1623 20.16228 z M 343.56298,52.391408 c -0.21441,-20.526276 -0.27843,-20.86019 -4.15856,-21.689608 -2.81176,-0.601043 -55.23276,-0.561564 -58.19413,0.04382 -1.39109,0.284378 -2.57767,0.993923 -3.03572,1.815272 -0.53297,0.955719 -0.82107,6.730866 -0.98925,19.83051 l -0.23727,18.482101 h 33.404 33.40399 l -0.19306,-18.482101 z"
     id="path949" />
</svg>
