<?xml version="1.0" encoding="UTF-8" standalone="no"?>
<svg
   version="1.0"
   width="11.999942pt"
   height="12pt"
   viewBox="0 0 11.999942 12"
   preserveAspectRatio="xMidYMid"
   id="svg6"
   sodipodi:docname="aeroplane_icon.svg"
   inkscape:version="1.2.2 (b0a8486541, 2022-12-01)"
   inkscape:export-filename="aeroplane_icon.svg"
   inkscape:export-xdpi="96.000465"
   inkscape:export-ydpi="96.000465"
   xmlns:inkscape="http://www.inkscape.org/namespaces/inkscape"
   xmlns:sodipodi="http://sodipodi.sourceforge.net/DTD/sodipodi-0.dtd"
   xmlns="http://www.w3.org/2000/svg"
   xmlns:svg="http://www.w3.org/2000/svg">
  <defs
     id="defs10" />
  <sodipodi:namedview
     id="namedview8"
     pagecolor="#ffffff"
     bordercolor="#000000"
     borderopacity="0.25"
     inkscape:showpageshadow="2"
     inkscape:pageopacity="0.0"
     inkscape:pagecheckerboard="0"
     inkscape:deskcolor="#d1d1d1"
     inkscape:document-units="pt"
     showgrid="false"
     inkscape:zoom="19.640625"
     inkscape:cx="6.9498807"
     inkscape:cy="4.2768497"
     inkscape:window-width="1920"
     inkscape:window-height="1012"
     inkscape:window-x="0"
     inkscape:window-y="0"
     inkscape:window-maximized="1"
     inkscape:current-layer="svg6" />
  <path
     style="fill:#ff8080;stroke-width:0.0143324"
     d="M 6.2674307,11.939262 C 6.0964571,11.850127 5.9356617,11.68558 5.8554486,11.517666 L 5.7946906,11.390477 5.7859406,9.4403171 C 5.7811406,8.3677294 5.7763006,7.4595073 5.7751936,7.4220457 L 5.7731736,7.353931 H 4.2185981 2.6640278 L 2.5221369,7.6443043 C 2.3092773,8.0799129 2.2468661,8.1632016 2.1002,8.2073839 1.9395748,8.2557737 0.37441442,8.2454537 0.25429444,8.1952189 0.1149921,8.1369592 2.0638547e-5,7.9616009 1.3562999e-8,7.8073633 -1.3861426e-5,7.703821 0.01053526,7.6784306 0.4127271,6.8139663 0.7288931,6.1344054 0.78789149,5.998398 0.78789149,5.949112 0.78789149,5.932327 0.64843841,5.6236988 0.47799564,5.2632661 0.01598453,4.2861854 -0.01128155,4.2180496 0.00493051,4.081032 0.02227425,3.9344496 0.10519973,3.8182098 0.24268528,3.7477619 0.31065848,3.712932 0.57073367,3.6988096 1.1460629,3.6987046 1.650766,3.6985771 2.0380633,3.715197 2.1247925,3.7406069 2.2506889,3.7774993 2.3380698,3.905265 2.5659669,4.3856724 l 0.1258446,0.2652791 1.5383816,0.00368 1.5383823,0.00368 0.00945,-0.4410003 c 0.00518,-0.2425505 0.00947,-1.1426682 0.00947,-2.0002611 l 1.72e-5,-1.55925988 0.038025,-0.0969416 C 5.9128146,0.33834383 6.0670329,0.16974829 6.2727885,0.07190371 6.3754919,0.02306392 6.3852502,0.02130892 6.6237635,0.00875398 6.7586974,0.00162901 7.1559661,-0.00184348 7.5065827,9.8401193e-4 l 0.6374845,0.005174978 0.096539,0.0470248 c 0.2074431,0.10104257 0.3412579,0.23700349 0.4467604,0.45392882 l 0.062842,0.12921395 0.01059,2.00867974 0.01059,2.0086789 0.596008,0.00925 c 0.7388264,0.01146 0.7725094,0.017835 0.9155774,0.1731937 0.120766,0.1311422 0.14601,0.2309961 0.14601,0.5775403 V 5.647636 h 0.229208 0.229209 l 0.0012,-0.1613183 c 6.68e-4,-0.088725 0.0059,-0.3968428 0.01176,-0.6847074 0.01192,-0.5914166 0.01105,-0.5865529 0.122287,-0.6845625 0.175598,-0.1547183 0.452186,-0.091792 0.550863,0.125326 0.01961,0.043125 0.02347,0.1452691 0.02747,0.7260508 l 0.0046,0.6758627 0.05749,0.0092 c 0.08671,0.013883 0.189001,0.07182 0.247446,0.1401662 0.06124,0.07161 0.101058,0.1911697 0.08637,0.2593061 -0.03348,0.1552674 -0.173241,0.2895513 -0.3194,0.3068792 l -0.07389,0.00876 -0.0011,0.6253518 c -5.75e-4,0.3439433 -0.0058,0.6593432 -0.01179,0.7008878 -0.01296,0.091134 -0.07024,0.178425 -0.157179,0.2395302 -0.05593,0.039315 -0.07216,0.04338 -0.171505,0.042997 -0.12148,-4.665e-4 -0.176437,-0.021352 -0.257792,-0.097973 -0.09419,-0.0887 -0.09264,-0.078858 -0.10414,-0.6615917 -0.0058,-0.2918072 -0.011,-0.6031519 -0.01165,-0.6918765 l -0.0012,-0.1613183 h -0.227659 -0.227714 l -0.0065,0.2832032 c -0.0081,0.35214 -0.02003,0.3966509 -0.140263,0.5253031 -0.127105,0.136097 -0.173419,0.151847 -0.4919486,0.1673239 -0.1427166,0.0069 -0.4319277,0.012832 -0.6426917,0.013102 L 8.767257,7.3540285 8.765977,8.8775908 c -6.833e-4,0.8379587 -0.00607,1.7365022 -0.012,1.9967622 -0.01011,0.444854 -0.012795,0.479214 -0.044775,0.573577 -0.072067,0.212648 -0.2411713,0.400736 -0.4520449,0.502803 L 8.1553762,12 7.2686982,11.999554 6.3820204,11.999108 6.267416,11.939363 Z m 1.7054456,-0.648954 c 0.06708,-0.02106 0.070635,-0.04489 0.075444,-0.505671 l 0.0045,-0.433767 H 7.2711617 6.4894763 l 0.0012,0.369239 c 0.00128,0.391687 0.010718,0.523121 0.039638,0.552111 0.010995,0.01103 0.082127,0.0214 0.1854718,0.02705 0.2036579,0.01115 1.216017,0.0039 1.257084,-0.009 z M 8.050904,6.2103659 C 8.0508718,4.3274216 8.046629,2.6948795 8.041514,2.5824948 L 8.032174,2.3781581 H 7.2608252 6.4894763 V 6.0060285 9.6338988 H 7.2702167 8.0509565 L 8.050925,6.2103659 Z M 1.6630347,7.5167523 1.8003809,7.5076473 1.9264701,7.2407932 C 2.1245037,6.8216778 2.1847782,6.7296764 2.2921031,6.6826973 2.356783,6.654385 3.1421067,6.639775 4.6880437,6.6381325 l 1.0994827,-0.0012 V 6.007368 5.3778041 L 4.1006982,5.3712792 C 2.7176025,5.3660142 2.4035522,5.3612877 2.3565678,5.3450833 2.2348954,5.3031187 2.1588972,5.1886384 1.9281426,4.6997253 L 1.8022689,4.4330294 1.599514,4.4237437 C 1.3416298,4.4119312 0.87387832,4.4115863 0.87387832,4.423203 c 0,0.00487 0.065223,0.1484401 0.14494028,0.3190523 0.079717,0.1706116 0.2117534,0.4533146 0.2934139,0.6282289 0.1859798,0.398363 0.2349446,0.5214615 0.2349446,0.5906547 0,0.099187 -0.036746,0.187179 -0.4085887,0.9784301 -0.1364398,0.290332 -0.25225026,0.541053 -0.25735663,0.5571569 -0.009163,0.028897 -0.005018,0.02928 0.31758643,0.029205 0.1797788,-5.1e-5 0.3886762,-0.0042 0.4642165,-0.00918 z M 9.7127145,6.0060285 V 5.3750944 H 9.2399733 8.7672315 v 0.6309341 0.630934 H 9.2399733 9.7127145 Z M 8.0483203,1.2274208 c -0.00502,-0.4817432 -0.00652,-0.48957992 -0.097505,-0.50904609 -0.065925,-0.0141074 -1.2950324,-0.0131774 -1.3644674,0.00105 -0.032617,0.006675 -0.060435,0.0233249 -0.071175,0.0426073 -0.012495,0.0224324 -0.019253,0.15797032 -0.023198,0.46541349 l -0.00555,0.4337674 H 7.269643 8.05286 L 8.04836,1.2274455 Z"
     id="path949" />
</svg>
