{
	"asset":{
		"generator":"Khronos glTF Blender I/O v4.0.44",
		"version":"2.0"
	},
	"scene":0,
	"scenes":[
		{
			"name":"Scene",
			"nodes":[
				0,
				1,
				2,
				3,
				4,
				5,
				6,
				7,
				8,
				9,
				10,
				11,
				12,
				13,
				14,
				15,
				16,
				17,
				18,
				19,
				20,
				21,
				22,
				23,
				24,
				25,
				26,
				27,
				28,
				29,
				30,
				31,
				32,
				33,
				34,
				35,
				36,
				37,
				38,
				39,
				40,
				41,
				42,
				43,
				44,
				45,
				46,
				47,
				48
			]
		}
	],
	"nodes":[
		{
			"mesh":0,
			"name":"OuterStructure"
		},
		{
			"mesh":1,
			"name":"InnerArc1",
			"translation":[
				0,
				0,
				19.440000534057617
			]
		},
		{
			"mesh":1,
			"name":"InnerArc2",
			"translation":[
				0,
				0,
				6.440001487731934
			]
		},
		{
			"mesh":1,
			"name":"InnerArc3",
			"translation":[
				0,
				0,
				-6.459997653961182
			]
		},
		{
			"mesh":1,
			"name":"InnerArc4",
			"translation":[
				0,
				0,
				-19.43999671936035
			]
		},
		{
			"mesh":2,
			"name":"SupportBar1",
			"rotation":[
				0.70710688829422,
				0,
				0,
				0.7071066498756409
			],
			"scale":[
				0.12530571222305298,
				19.45440101623535,
				0.12530572712421417
			],
			"translation":[
				0,
				15.600000381469727,
				0
			]
		},
		{
			"mesh":2,
			"name":"SupportBar2",
			"rotation":[
				0.70710688829422,
				0,
				0,
				0.7071066498756409
			],
			"scale":[
				0.12530571222305298,
				19.45440101623535,
				0.12530572712421417
			],
			"translation":[
				-14.59999942779541,
				11.700000762939453,
				0
			]
		},
		{
			"mesh":2,
			"name":"SupportBar3",
			"rotation":[
				0.70710688829422,
				0,
				0,
				0.7071066498756409
			],
			"scale":[
				0.12530571222305298,
				19.45440101623535,
				0.12530572712421417
			],
			"translation":[
				14.600000381469727,
				11.700000762939453,
				0
			]
		},
		{
			"mesh":2,
			"name":"SupportBar4",
			"rotation":[
				0.70710688829422,
				0,
				0,
				0.7071066498756409
			],
			"scale":[
				0.12530571222305298,
				19.45440101623535,
				0.12530572712421417
			],
			"translation":[
				7.100000381469727,
				13.700000762939453,
				0
			]
		},
		{
			"mesh":2,
			"name":"SupportBar5",
			"rotation":[
				0.70710688829422,
				0,
				0,
				0.7071066498756409
			],
			"scale":[
				0.12530571222305298,
				19.45440101623535,
				0.12530572712421417
			],
			"translation":[
				-7.09999942779541,
				13.700000762939453,
				0
			]
		},
		{
			"mesh":2,
			"name":"SupportBar6",
			"rotation":[
				0.70710688829422,
				0,
				0,
				0.7071066498756409
			],
			"scale":[
				0.12530571222305298,
				19.45440101623535,
				0.12530572712421417
			],
			"translation":[
				-14.59999942779541,
				6.600000381469727,
				0
			]
		},
		{
			"mesh":2,
			"name":"SupportBar7",
			"rotation":[
				0.70710688829422,
				0,
				0,
				0.7071066498756409
			],
			"scale":[
				0.12530571222305298,
				19.45440101623535,
				0.12530572712421417
			],
			"translation":[
				-14.59999942779541,
				1.6000003814697266,
				0
			]
		},
		{
			"mesh":2,
			"name":"SupportBar8",
			"rotation":[
				0.70710688829422,
				0,
				0,
				0.7071066498756409
			],
			"scale":[
				0.12530571222305298,
				19.45440101623535,
				0.12530572712421417
			],
			"translation":[
				14.600000381469727,
				6.600000381469727,
				0
			]
		},
		{
			"mesh":2,
			"name":"SupportBar9",
			"rotation":[
				0.70710688829422,
				0,
				0,
				0.7071066498756409
			],
			"scale":[
				0.12530571222305298,
				19.45440101623535,
				0.12530572712421417
			],
			"translation":[
				14.600000381469727,
				1.6000003814697266,
				0
			]
		},
		{
			"mesh":2,
			"name":"SupportBar10",
			"rotation":[
				0.5666029453277588,
				0,
				0,
				0.8239909410476685
			],
			"scale":[
				0.12530571222305298,
				6.897221565246582,
				0.12530571222305298
			],
			"translation":[
				-14.59999942779541,
				4.100000381469727,
				0
			]
		},
		{
			"mesh":2,
			"name":"SupportBar11",
			"rotation":[
				0.8249061107635498,
				0,
				0,
				0.5652697682380676
			],
			"scale":[
				0.12530571222305298,
				6.897221565246582,
				0.12530571222305298
			],
			"translation":[
				-14.59999942779541,
				4.100000381469727,
				0
			]
		},
		{
			"mesh":2,
			"name":"SupportBar12",
			"rotation":[
				0.5666029453277588,
				0,
				0,
				0.8239909410476685
			],
			"scale":[
				0.12530571222305298,
				6.897221565246582,
				0.12530571222305298
			],
			"translation":[
				14.600000381469727,
				4.100000381469727,
				0
			]
		},
		{
			"mesh":2,
			"name":"SupportBar13",
			"rotation":[
				0.8249061107635498,
				0,
				0,
				0.5652697682380676
			],
			"scale":[
				0.12530571222305298,
				6.897221565246582,
				0.12530571222305298
			],
			"translation":[
				14.600000381469727,
				4.100000381469727,
				0
			]
		},
		{
			"mesh":2,
			"name":"WindowBar",
			"scale":[
				0.08505616337060928,
				1.1658363342285156,
				0.08505616337060928
			],
			"translation":[
				-14.869998931884766,
				9,
				1.3000004291534424
			]
		},
		{
			"mesh":2,
			"name":"WindowBar.001",
			"scale":[
				0.08505616337060928,
				1.1658363342285156,
				0.08505616337060928
			],
			"translation":[
				-14.869998931884766,
				9,
				-1.299999713897705
			]
		},
		{
			"mesh":2,
			"name":"WindowBar.002",
			"scale":[
				0.08505616337060928,
				1.1658363342285156,
				0.08505616337060928
			],
			"translation":[
				-14.869998931884766,
				9,
				14.300000190734863
			]
		},
		{
			"mesh":2,
			"name":"WindowBar.003",
			"scale":[
				0.08505616337060928,
				1.1658363342285156,
				0.08505616337060928
			],
			"translation":[
				-14.869998931884766,
				9,
				11.700000762939453
			]
		},
		{
			"mesh":2,
			"name":"WindowBar.004",
			"scale":[
				0.08505616337060928,
				1.1658363342285156,
				0.08505616337060928
			],
			"translation":[
				-14.869998931884766,
				9,
				1.3000004291534424
			]
		},
		{
			"mesh":2,
			"name":"WindowBar.005",
			"scale":[
				0.08505616337060928,
				1.1658363342285156,
				0.08505616337060928
			],
			"translation":[
				-14.869998931884766,
				9,
				-1.299999713897705
			]
		},
		{
			"mesh":2,
			"name":"WindowBar.006",
			"scale":[
				0.08505616337060928,
				1.1658363342285156,
				0.08505616337060928
			],
			"translation":[
				-14.869998931884766,
				9,
				14.300000190734863
			]
		},
		{
			"mesh":2,
			"name":"WindowBar.007",
			"scale":[
				0.08505616337060928,
				1.1658363342285156,
				0.08505616337060928
			],
			"translation":[
				-14.869998931884766,
				9,
				11.700000762939453
			]
		},
		{
			"mesh":2,
			"name":"WindowBar.008",
			"scale":[
				0.08505616337060928,
				1.1658363342285156,
				0.08505616337060928
			],
			"translation":[
				-14.869998931884766,
				9,
				-11.699999809265137
			]
		},
		{
			"mesh":2,
			"name":"WindowBar.009",
			"scale":[
				0.08505616337060928,
				1.1658363342285156,
				0.08505616337060928
			],
			"translation":[
				-14.869998931884766,
				9,
				-14.299999237060547
			]
		},
		{
			"mesh":2,
			"name":"WindowBar.010",
			"scale":[
				0.08505616337060928,
				1.1658363342285156,
				0.08505616337060928
			],
			"translation":[
				14.870000839233398,
				9,
				1.3000004291534424
			]
		},
		{
			"mesh":2,
			"name":"WindowBar.011",
			"scale":[
				0.08505616337060928,
				1.1658363342285156,
				0.08505616337060928
			],
			"translation":[
				14.870000839233398,
				9,
				-1.299999713897705
			]
		},
		{
			"mesh":2,
			"name":"WindowBar.012",
			"scale":[
				0.08505616337060928,
				1.1658363342285156,
				0.08505616337060928
			],
			"translation":[
				14.870000839233398,
				9,
				14.300000190734863
			]
		},
		{
			"mesh":2,
			"name":"WindowBar.013",
			"scale":[
				0.08505616337060928,
				1.1658363342285156,
				0.08505616337060928
			],
			"translation":[
				14.870000839233398,
				9,
				11.700000762939453
			]
		},
		{
			"mesh":2,
			"name":"WindowBar.014",
			"scale":[
				0.08505616337060928,
				1.1658363342285156,
				0.08505616337060928
			],
			"translation":[
				14.870000839233398,
				9,
				1.3000004291534424
			]
		},
		{
			"mesh":2,
			"name":"WindowBar.015",
			"scale":[
				0.08505616337060928,
				1.1658363342285156,
				0.08505616337060928
			],
			"translation":[
				14.870000839233398,
				9,
				-1.299999713897705
			]
		},
		{
			"mesh":2,
			"name":"WindowBar.016",
			"scale":[
				0.08505616337060928,
				1.1658363342285156,
				0.08505616337060928
			],
			"translation":[
				14.870000839233398,
				9,
				14.300000190734863
			]
		},
		{
			"mesh":2,
			"name":"WindowBar.017",
			"scale":[
				0.08505616337060928,
				1.1658363342285156,
				0.08505616337060928
			],
			"translation":[
				14.870000839233398,
				9,
				11.700000762939453
			]
		},
		{
			"mesh":2,
			"name":"WindowBar.018",
			"scale":[
				0.08505616337060928,
				1.1658363342285156,
				0.08505616337060928
			],
			"translation":[
				14.870000839233398,
				9,
				-11.699999809265137
			]
		},
		{
			"mesh":2,
			"name":"WindowBar.019",
			"scale":[
				0.08505616337060928,
				1.1658363342285156,
				0.08505616337060928
			],
			"translation":[
				14.870000839233398,
				9,
				-14.299999237060547
			]
		},
		{
			"mesh":2,
			"name":"WindowBar.020",
			"rotation":[
				0,
				-0.7071066498756409,
				0,
				0.70710688829422
			],
			"scale":[
				0.08505615592002869,
				1.1658363342285156,
				0.08505615592002869
			],
			"translation":[
				-9.299999237060547,
				9,
				-19.799999237060547
			]
		},
		{
			"mesh":2,
			"name":"WindowBar.021",
			"rotation":[
				0,
				-0.7071066498756409,
				0,
				0.70710688829422
			],
			"scale":[
				0.08505615592002869,
				1.1658363342285156,
				0.08505615592002869
			],
			"translation":[
				-6.700000762939453,
				9,
				-19.799999237060547
			]
		},
		{
			"mesh":2,
			"name":"WindowBar.022",
			"rotation":[
				0,
				-0.7071066498756409,
				0,
				0.70710688829422
			],
			"scale":[
				0.08505615592002869,
				1.1658363342285156,
				0.08505615592002869
			],
			"translation":[
				6.700000762939453,
				9,
				-19.799999237060547
			]
		},
		{
			"mesh":2,
			"name":"WindowBar.023",
			"rotation":[
				0,
				-0.7071066498756409,
				0,
				0.70710688829422
			],
			"scale":[
				0.08505615592002869,
				1.1658363342285156,
				0.08505615592002869
			],
			"translation":[
				9.299999237060547,
				9,
				-19.799999237060547
			]
		},
		{
			"mesh":3,
			"name":"Floor"
		},
		{
			"mesh":4,
			"name":"Lamp",
			"scale":[
				0.699999988079071,
				0.699999988079071,
				0.699999988079071
			],
			"translation":[
				7.10072135925293,
				12.864182472229004,
				0
			]
		},
		{
			"mesh":4,
			"name":"Lamp.001",
			"scale":[
				0.699999988079071,
				0.699999988079071,
				0.699999988079071
			],
			"translation":[
				-7.1001129150390625,
				12.864182472229004,
				0
			]
		},
		{
			"mesh":4,
			"name":"Lamp.002",
			"scale":[
				0.699999988079071,
				0.699999988079071,
				0.699999988079071
			],
			"translation":[
				-7.1001129150390625,
				12.864182472229004,
				-12.998933792114258
			]
		},
		{
			"mesh":4,
			"name":"Lamp.003",
			"scale":[
				0.699999988079071,
				0.699999988079071,
				0.699999988079071
			],
			"translation":[
				7.101009845733643,
				12.864182472229004,
				-12.998933792114258
			]
		},
		{
			"mesh":4,
			"name":"Lamp.004",
			"scale":[
				0.699999988079071,
				0.699999988079071,
				0.699999988079071
			],
			"translation":[
				7.10072135925293,
				12.864182472229004,
				12.998124122619629
			]
		},
		{
			"mesh":4,
			"name":"Lamp.005",
			"scale":[
				0.699999988079071,
				0.699999988079071,
				0.699999988079071
			],
			"translation":[
				-7.1001129150390625,
				12.864182472229004,
				12.99795913696289
			]
		}
	],
	"materials":[
		{
			"doubleSided":true,
			"name":"HangarMat",
			"normalTexture":{
				"index":0
			},
			"pbrMetallicRoughness":{
				"baseColorFactor":[
					0.10649748146533966,
					0.05216917395591736,
					0.017960336059331894,
					1
				],
				"metallicFactor":0.30000001192092896,
				"metallicRoughnessTexture":{
					"index":1
				}
			}
		},
		{
			"doubleSided":true,
			"name":"Metal",
			"pbrMetallicRoughness":{
				"baseColorFactor":[
					0.13758216798305511,
					0.13758216798305511,
					0.13758216798305511,
					1
				],
				"roughnessFactor":0.699999988079071
			}
		},
		{
			"doubleSided":true,
			"name":"Floor",
			"pbrMetallicRoughness":{
				"baseColorFactor":[
					0.5488517880439758,
					0.5488517880439758,
					0.5488517880439758,
					1
				],
				"metallicFactor":0,
				"roughnessFactor":0.5
			}
		},
		{
			"doubleSided":true,
			"name":"Lamp",
			"pbrMetallicRoughness":{
				"baseColorTexture":{
					"index":2
				},
				"metallicFactor":0,
				"roughnessFactor":0.5
			}
		}
	],
	"meshes":[
		{
			"name":"HangarOuterStructure",
			"primitives":[
				{
					"attributes":{
						"POSITION":0,
						"NORMAL":1,
						"TEXCOORD_0":2
					},
					"indices":3,
					"material":0
				}
			]
		},
		{
			"name":"HangarSupportArc",
			"primitives":[
				{
					"attributes":{
						"POSITION":4,
						"NORMAL":5,
						"TEXCOORD_0":6
					},
					"indices":7,
					"material":1
				}
			]
		},
		{
			"name":"HangarSupportBar",
			"primitives":[
				{
					"attributes":{
						"POSITION":8,
						"NORMAL":9,
						"TEXCOORD_0":10
					},
					"indices":11,
					"material":1
				}
			]
		},
		{
			"name":"Cube.001",
			"primitives":[
				{
					"attributes":{
						"POSITION":12,
						"NORMAL":13,
						"TEXCOORD_0":14
					},
					"indices":15,
					"material":2
				}
			]
		},
		{
			"name":"Lamp",
			"primitives":[
				{
					"attributes":{
						"POSITION":16,
						"NORMAL":17,
						"TEXCOORD_0":18
					},
					"indices":19,
					"material":3
				}
			]
		}
	],
	"textures":[
		{
			"sampler":0,
			"source":0
		},
		{
			"sampler":0,
			"source":1
		},
		{
			"sampler":0,
			"source":2
		}
	],
	"images":[
		{
			"mimeType":"image/png",
			"name":"metal_0023_normal_opengl_2k",
			"uri":"metal_0023_normal_opengl_2k.png"
		},
		{
			"mimeType":"image/png",
			"name":"metal_0023_roughness_2k",
			"uri":"metal_0023_roughness_2k.png"
		},
		{
			"mimeType":"image/png",
			"name":"lamp_color",
			"uri":"lamp_color.png"
		}
	],
	"accessors":[
		{
			"bufferView":0,
			"componentType":5126,
			"count":280,
			"max":[
				15,
				16,
				20
			],
			"min":[
				-15,
				0,
				-20
			],
			"type":"VEC3"
		},
		{
			"bufferView":1,
			"componentType":5126,
			"count":280,
			"type":"VEC3"
		},
		{
			"bufferView":2,
			"componentType":5126,
			"count":280,
			"type":"VEC2"
		},
		{
			"bufferView":3,
			"componentType":5123,
			"count":648,
			"type":"SCALAR"
		},
		{
			"bufferView":4,
			"componentType":5126,
			"count":68,
			"max":[
				14.82149887084961,
				15.800335884094238,
				0.2204090803861618
			],
			"min":[
				-14.838926315307617,
				0,
				-0.2204090803861618
			],
			"type":"VEC3"
		},
		{
			"bufferView":5,
			"componentType":5126,
			"count":68,
			"type":"VEC3"
		},
		{
			"bufferView":6,
			"componentType":5126,
			"count":68,
			"type":"VEC2"
		},
		{
			"bufferView":7,
			"componentType":5123,
			"count":132,
			"type":"SCALAR"
		},
		{
			"bufferView":8,
			"componentType":5126,
			"count":48,
			"max":[
				1,
				1,
				1
			],
			"min":[
				-1,
				-1,
				-1
			],
			"type":"VEC3"
		},
		{
			"bufferView":9,
			"componentType":5126,
			"count":48,
			"type":"VEC3"
		},
		{
			"bufferView":10,
			"componentType":5126,
			"count":48,
			"type":"VEC2"
		},
		{
			"bufferView":11,
			"componentType":5123,
			"count":84,
			"type":"SCALAR"
		},
		{
			"bufferView":12,
			"componentType":5126,
			"count":24,
			"max":[
				15,
				1.1175870895385742e-08,
				20
			],
			"min":[
				-15,
				-0.10000000894069672,
				-20
			],
			"type":"VEC3"
		},
		{
			"bufferView":13,
			"componentType":5126,
			"count":24,
			"type":"VEC3"
		},
		{
			"bufferView":14,
			"componentType":5126,
			"count":24,
			"type":"VEC2"
		},
		{
			"bufferView":15,
			"componentType":5123,
			"count":36,
			"type":"SCALAR"
		},
		{
			"bufferView":16,
			"componentType":5126,
			"count":1044,
			"max":[
				0.9999997019767761,
				1,
				0.9999993443489075
			],
			"min":[
				-0.9999990463256836,
				0,
				-1
			],
			"type":"VEC3"
		},
		{
			"bufferView":17,
			"componentType":5126,
			"count":1044,
			"type":"VEC3"
		},
		{
			"bufferView":18,
			"componentType":5126,
			"count":1044,
			"type":"VEC2"
		},
		{
			"bufferView":19,
			"componentType":5123,
			"count":1530,
			"type":"SCALAR"
		}
	],
	"bufferViews":[
		{
			"buffer":0,
			"byteLength":3360,
			"byteOffset":0,
			"target":34962
		},
		{
			"buffer":0,
			"byteLength":3360,
			"byteOffset":3360,
			"target":34962
		},
		{
			"buffer":0,
			"byteLength":2240,
			"byteOffset":6720,
			"target":34962
		},
		{
			"buffer":0,
			"byteLength":1296,
			"byteOffset":8960,
			"target":34963
		},
		{
			"buffer":0,
			"byteLength":816,
			"byteOffset":10256,
			"target":34962
		},
		{
			"buffer":0,
			"byteLength":816,
			"byteOffset":11072,
			"target":34962
		},
		{
			"buffer":0,
			"byteLength":544,
			"byteOffset":11888,
			"target":34962
		},
		{
			"buffer":0,
			"byteLength":264,
			"byteOffset":12432,
			"target":34963
		},
		{
			"buffer":0,
			"byteLength":576,
			"byteOffset":12696,
			"target":34962
		},
		{
			"buffer":0,
			"byteLength":576,
			"byteOffset":13272,
			"target":34962
		},
		{
			"buffer":0,
			"byteLength":384,
			"byteOffset":13848,
			"target":34962
		},
		{
			"buffer":0,
			"byteLength":168,
			"byteOffset":14232,
			"target":34963
		},
		{
			"buffer":0,
			"byteLength":288,
			"byteOffset":14400,
			"target":34962
		},
		{
			"buffer":0,
			"byteLength":288,
			"byteOffset":14688,
			"target":34962
		},
		{
			"buffer":0,
			"byteLength":192,
			"byteOffset":14976,
			"target":34962
		},
		{
			"buffer":0,
			"byteLength":72,
			"byteOffset":15168,
			"target":34963
		},
		{
			"buffer":0,
			"byteLength":12528,
			"byteOffset":15240,
			"target":34962
		},
		{
			"buffer":0,
			"byteLength":12528,
			"byteOffset":27768,
			"target":34962
		},
		{
			"buffer":0,
			"byteLength":8352,
			"byteOffset":40296,
			"target":34962
		},
		{
			"buffer":0,
			"byteLength":3060,
			"byteOffset":48648,
			"target":34963
		}
	],
	"samplers":[
		{
			"magFilter":9729,
			"minFilter":9987
		}
	],
	"buffers":[
		{
			"byteLength":51708,
			"uri":"hangar.bin"
		}
	]
}
