{
	"asset":{
		"generator":"Khronos glTF Blender I/O v4.0.44",
		"version":"2.0"
	},
	"scene":0,
	"scenes":[
		{
			"name":"Scene",
			"nodes":[
				0
			]
		}
	],
	"nodes":[
		{
			"mesh":0,
			"name":"Jet"
		}
	],
	"materials":[
		{
			"doubleSided":true,
			"name":"Material.001",
			"pbrMetallicRoughness":{
				"baseColorTexture":{
					"index":0
				},
				"metallicFactor":0,
				"roughnessFactor":0.5
			}
		}
	],
	"meshes":[
		{
			"name":"Cube.002",
			"primitives":[
				{
					"attributes":{
						"POSITION":0,
						"NORMAL":1,
						"TEXCOORD_0":2
					},
					"indices":3,
					"material":0
				}
			]
		}
	],
	"textures":[
		{
			"sampler":0,
			"source":0
		}
	],
	"images":[
		{
			"mimeType":"image/png",
			"name":"jet_color",
			"uri":"jet_color.png"
		}
	],
	"accessors":[
		{
			"bufferView":0,
			"componentType":5126,
			"count":525,
			"max":[
				2,
				0.4690000116825104,
				2.700000047683716
			],
			"min":[
				-2,
				-0.1599999964237213,
				-1.6999999284744263
			],
			"type":"VEC3"
		},
		{
			"bufferView":1,
			"componentType":5126,
			"count":525,
			"type":"VEC3"
		},
		{
			"bufferView":2,
			"componentType":5126,
			"count":525,
			"type":"VEC2"
		},
		{
			"bufferView":3,
			"componentType":5123,
			"count":720,
			"type":"SCALAR"
		}
	],
	"bufferViews":[
		{
			"buffer":0,
			"byteLength":6300,
			"byteOffset":0,
			"target":34962
		},
		{
			"buffer":0,
			"byteLength":6300,
			"byteOffset":6300,
			"target":34962
		},
		{
			"buffer":0,
			"byteLength":4200,
			"byteOffset":12600,
			"target":34962
		},
		{
			"buffer":0,
			"byteLength":1440,
			"byteOffset":16800,
			"target":34963
		}
	],
	"samplers":[
		{
			"magFilter":9729,
			"minFilter":9987
		}
	],
	"buffers":[
		{
			"byteLength":18240,
			"uri":"jet.bin"
		}
	]
}
